solid OpenSCAD_Model
  facet normal 0.124516 -0.992218 0
    outer loop
      vertex -71.0306 105.403 0
      vertex -70.3453 105.489 18.5
      vertex -71.0306 105.403 18.5
    endloop
  endfacet
  facet normal 0.124516 -0.992218 0
    outer loop
      vertex -70.3453 105.489 18.5
      vertex -71.0306 105.403 0
      vertex -70.3453 105.489 0
    endloop
  endfacet
  facet normal 0 -1 0
    outer loop
      vertex -70.3453 105.489 0
      vertex 70.3453 105.489 18.5
      vertex -70.3453 105.489 18.5
    endloop
  endfacet
  facet normal 0 -1 -0
    outer loop
      vertex 70.3453 105.489 18.5
      vertex -70.3453 105.489 0
      vertex 70.3453 105.489 0
    endloop
  endfacet
  facet normal 0 0 1
    outer loop
      vertex 79.1692 100.285 18.5
      vertex 75.4566 100.689 18.5
      vertex 75.5 100 18.5
    endloop
  endfacet
  facet normal 0 0 1
    outer loop
      vertex 76.4719 106.017 18.5
      vertex 75.3272 101.368 18.5
      vertex 75.4566 100.689 18.5
    endloop
  endfacet
  facet normal 0 0 1
    outer loop
      vertex 76.4719 106.017 18.5
      vertex 75.1138 102.025 18.5
      vertex 75.3272 101.368 18.5
    endloop
  endfacet
  facet normal 0 0 1
    outer loop
      vertex 76.4719 106.017 18.5
      vertex 74.8197 102.65 18.5
      vertex 75.1138 102.025 18.5
    endloop
  endfacet
  facet normal 0 0 1
    outer loop
      vertex 72.947 104.644 18.5
      vertex 75.5336 106.898 18.5
      vertex 74.4922 107.654 18.5
    endloop
  endfacet
  facet normal 0 0 1
    outer loop
      vertex 76.4719 106.017 18.5
      vertex 74.4496 103.233 18.5
      vertex 74.8197 102.65 18.5
    endloop
  endfacet
  facet normal 0 0 1
    outer loop
      vertex 76.4719 106.017 18.5
      vertex 74.0093 103.765 18.5
      vertex 74.4496 103.233 18.5
    endloop
  endfacet
  facet normal 0 0 1
    outer loop
      vertex 76.4719 106.017 18.5
      vertex 73.5058 104.238 18.5
      vertex 74.0093 103.765 18.5
    endloop
  endfacet
  facet normal 0 0 1
    outer loop
      vertex 72.3418 104.977 18.5
      vertex 74.4922 107.654 18.5
      vertex 73.3642 108.274 18.5
    endloop
  endfacet
  facet normal 0 0 1
    outer loop
      vertex 75.5336 106.898 18.5
      vertex 72.947 104.644 18.5
      vertex 73.5058 104.238 18.5
    endloop
  endfacet
  facet normal 0 0 1
    outer loop
      vertex 74.4922 107.654 18.5
      vertex 72.3418 104.977 18.5
      vertex 72.947 104.644 18.5
    endloop
  endfacet
  facet normal 0 0 1
    outer loop
      vertex 71.6996 105.231 18.5
      vertex 73.3642 108.274 18.5
      vertex 72.1674 108.748 18.5
    endloop
  endfacet
  facet normal 0 0 1
    outer loop
      vertex 73.3642 108.274 18.5
      vertex 71.6996 105.231 18.5
      vertex 72.3418 104.977 18.5
    endloop
  endfacet
  facet normal 0 0 1
    outer loop
      vertex 72.1674 108.748 18.5
      vertex 71.0306 105.403 18.5
      vertex 71.6996 105.231 18.5
    endloop
  endfacet
  facet normal 0 0 1
    outer loop
      vertex 70.9207 109.068 18.5
      vertex 71.0306 105.403 18.5
      vertex 72.1674 108.748 18.5
    endloop
  endfacet
  facet normal 0 0 1
    outer loop
      vertex 70.9207 109.068 18.5
      vertex 70.3453 105.489 18.5
      vertex 71.0306 105.403 18.5
    endloop
  endfacet
  facet normal 0 0 1
    outer loop
      vertex 69.6436 109.23 18.5
      vertex 70.3453 105.489 18.5
      vertex 70.9207 109.068 18.5
    endloop
  endfacet
  facet normal -0 0 1
    outer loop
      vertex -69.6436 109.23 18.5
      vertex 70.3453 105.489 18.5
      vertex 69.6436 109.23 18.5
    endloop
  endfacet
  facet normal 0 0 1
    outer loop
      vertex -69.6436 109.23 18.5
      vertex -70.3453 105.489 18.5
      vertex 70.3453 105.489 18.5
    endloop
  endfacet
  facet normal -0 0 1
    outer loop
      vertex -70.9207 109.068 18.5
      vertex -70.3453 105.489 18.5
      vertex -69.6436 109.23 18.5
    endloop
  endfacet
  facet normal 0 0 1
    outer loop
      vertex -70.9207 109.068 18.5
      vertex -71.0306 105.403 18.5
      vertex -70.3453 105.489 18.5
    endloop
  endfacet
  facet normal -0 0 1
    outer loop
      vertex -72.1674 108.748 18.5
      vertex -71.0306 105.403 18.5
      vertex -70.9207 109.068 18.5
    endloop
  endfacet
  facet normal 0 0 1
    outer loop
      vertex -71.0306 105.403 18.5
      vertex -72.1674 108.748 18.5
      vertex -71.6996 105.231 18.5
    endloop
  endfacet
  facet normal -0 0 1
    outer loop
      vertex -73.3642 108.274 18.5
      vertex -71.6996 105.231 18.5
      vertex -72.1674 108.748 18.5
    endloop
  endfacet
  facet normal 0 0 1
    outer loop
      vertex -71.6996 105.231 18.5
      vertex -73.3642 108.274 18.5
      vertex -72.3418 104.977 18.5
    endloop
  endfacet
  facet normal -0 0 1
    outer loop
      vertex -74.4922 107.654 18.5
      vertex -72.3418 104.977 18.5
      vertex -73.3642 108.274 18.5
    endloop
  endfacet
  facet normal 0 0 1
    outer loop
      vertex -72.3418 104.977 18.5
      vertex -74.4922 107.654 18.5
      vertex -72.947 104.644 18.5
    endloop
  endfacet
  facet normal -0 0 1
    outer loop
      vertex -75.5336 106.898 18.5
      vertex -72.947 104.644 18.5
      vertex -74.4922 107.654 18.5
    endloop
  endfacet
  facet normal 0 0 1
    outer loop
      vertex -72.947 104.644 18.5
      vertex -75.5336 106.898 18.5
      vertex -73.5058 104.238 18.5
    endloop
  endfacet
  facet normal -0 0 1
    outer loop
      vertex -76.4719 106.017 18.5
      vertex -73.5058 104.238 18.5
      vertex -75.5336 106.898 18.5
    endloop
  endfacet
  facet normal 0 0 1
    outer loop
      vertex -73.5058 104.238 18.5
      vertex -76.4719 106.017 18.5
      vertex -74.0093 103.765 18.5
    endloop
  endfacet
  facet normal 0 0 1
    outer loop
      vertex -74.0093 103.765 18.5
      vertex -76.4719 106.017 18.5
      vertex -74.4496 103.233 18.5
    endloop
  endfacet
  facet normal -0 0 1
    outer loop
      vertex -77.2924 105.025 18.5
      vertex -74.4496 103.233 18.5
      vertex -76.4719 106.017 18.5
    endloop
  endfacet
  facet normal 0 0 1
    outer loop
      vertex -74.4496 103.233 18.5
      vertex -77.2924 105.025 18.5
      vertex -74.8197 102.65 18.5
    endloop
  endfacet
  facet normal -0 0 1
    outer loop
      vertex -77.9821 103.938 18.5
      vertex -74.8197 102.65 18.5
      vertex -77.2924 105.025 18.5
    endloop
  endfacet
  facet normal 0 0 1
    outer loop
      vertex -74.8197 102.65 18.5
      vertex -77.9821 103.938 18.5
      vertex -75.1138 102.025 18.5
    endloop
  endfacet
  facet normal -0 0 1
    outer loop
      vertex -78.5302 102.773 18.5
      vertex -75.1138 102.025 18.5
      vertex -77.9821 103.938 18.5
    endloop
  endfacet
  facet normal 0 0 1
    outer loop
      vertex -75.1138 102.025 18.5
      vertex -78.5302 102.773 18.5
      vertex -75.3272 101.368 18.5
    endloop
  endfacet
  facet normal -0 0 1
    outer loop
      vertex -78.928 101.549 18.5
      vertex -75.3272 101.368 18.5
      vertex -78.5302 102.773 18.5
    endloop
  endfacet
  facet normal 0 0 1
    outer loop
      vertex -75.3272 101.368 18.5
      vertex -78.928 101.549 18.5
      vertex -75.4566 100.689 18.5
    endloop
  endfacet
  facet normal 0 0 1
    outer loop
      vertex -79.1692 100.285 18.5
      vertex -75.4566 100.689 18.5
      vertex -78.928 101.549 18.5
    endloop
  endfacet
  facet normal 0 0 1
    outer loop
      vertex -75.4566 100.689 18.5
      vertex -79.1692 100.285 18.5
      vertex -75.5 100 18.5
    endloop
  endfacet
  facet normal 0 0 1
    outer loop
      vertex -75.5 100 18.5
      vertex -79.1692 100.285 18.5
      vertex -79.25 99 18.5
    endloop
  endfacet
  facet normal 0 0 1
    outer loop
      vertex -75.5 100 18.5
      vertex -79.25 99 18.5
      vertex -75.5 0 18.5
    endloop
  endfacet
  facet normal 0 0 1
    outer loop
      vertex -75.5 0 18.5
      vertex -79.25 99 18.5
      vertex -79.25 0 18.5
    endloop
  endfacet
  facet normal -0 0 1
    outer loop
      vertex 75.5 100 18.5
      vertex 79.25 99 18.5
      vertex 79.1692 100.285 18.5
    endloop
  endfacet
  facet normal -0 0 1
    outer loop
      vertex 75.4566 100.689 18.5
      vertex 79.1692 100.285 18.5
      vertex 78.928 101.549 18.5
    endloop
  endfacet
  facet normal 0 0 1
    outer loop
      vertex 75.4566 100.689 18.5
      vertex 78.928 101.549 18.5
      vertex 78.5302 102.773 18.5
    endloop
  endfacet
  facet normal 0 0 1
    outer loop
      vertex 75.4566 100.689 18.5
      vertex 78.5302 102.773 18.5
      vertex 77.9821 103.938 18.5
    endloop
  endfacet
  facet normal 0 0 1
    outer loop
      vertex 75.4566 100.689 18.5
      vertex 77.9821 103.938 18.5
      vertex 77.2924 105.025 18.5
    endloop
  endfacet
  facet normal 0 0 1
    outer loop
      vertex 75.4566 100.689 18.5
      vertex 77.2924 105.025 18.5
      vertex 76.4719 106.017 18.5
    endloop
  endfacet
  facet normal 0 0 1
    outer loop
      vertex 73.5058 104.238 18.5
      vertex 76.4719 106.017 18.5
      vertex 75.5336 106.898 18.5
    endloop
  endfacet
  facet normal 0 0 1
    outer loop
      vertex 75.5 0 18.5
      vertex 79.25 99 18.5
      vertex 75.5 100 18.5
    endloop
  endfacet
  facet normal 0 0 1
    outer loop
      vertex 79.25 99 18.5
      vertex 75.5 0 18.5
      vertex 79.25 0 18.5
    endloop
  endfacet
  facet normal 0.998022 -0.0628652 0
    outer loop
      vertex -75.5 100 18.5
      vertex -75.4566 100.689 0
      vertex -75.4566 100.689 18.5
    endloop
  endfacet
  facet normal 0.998022 -0.0628652 0
    outer loop
      vertex -75.4566 100.689 0
      vertex -75.5 100 18.5
      vertex -75.5 100 0
    endloop
  endfacet
  facet normal -0.124516 -0.992218 0
    outer loop
      vertex 70.3453 105.489 0
      vertex 71.0306 105.403 18.5
      vertex 70.3453 105.489 18.5
    endloop
  endfacet
  facet normal -0.124516 -0.992218 -0
    outer loop
      vertex 71.0306 105.403 18.5
      vertex 70.3453 105.489 0
      vertex 71.0306 105.403 0
    endloop
  endfacet
  facet normal -1 0 0
    outer loop
      vertex 75.5 0 0
      vertex 75.5 100 18.5
      vertex 75.5 100 0
    endloop
  endfacet
  facet normal -1 -0 0
    outer loop
      vertex 75.5 100 18.5
      vertex 75.5 0 0
      vertex 75.5 0 18.5
    endloop
  endfacet
  facet normal 1 -0 0
    outer loop
      vertex -75.5 0 18.5
      vertex -75.5 100 0
      vertex -75.5 100 18.5
    endloop
  endfacet
  facet normal 1 0 0
    outer loop
      vertex -75.5 100 0
      vertex -75.5 0 18.5
      vertex -75.5 0 0
    endloop
  endfacet
  facet normal 0 0 -1
    outer loop
      vertex -79.25 99 0
      vertex -75.5 100 0
      vertex -75.5 0 0
    endloop
  endfacet
  facet normal 0 -0 -1
    outer loop
      vertex -79.1692 100.285 0
      vertex -75.5 100 0
      vertex -79.25 99 0
    endloop
  endfacet
  facet normal 0 0 -1
    outer loop
      vertex -75.5 100 0
      vertex -76.4719 106.017 0
      vertex -75.5336 106.898 0
    endloop
  endfacet
  facet normal 0 0 -1
    outer loop
      vertex -75.5 100 0
      vertex -77.2924 105.025 0
      vertex -76.4719 106.017 0
    endloop
  endfacet
  facet normal 0 0 -1
    outer loop
      vertex -75.5 100 0
      vertex -77.9821 103.938 0
      vertex -77.2924 105.025 0
    endloop
  endfacet
  facet normal 0 0 -1
    outer loop
      vertex -75.5 100 0
      vertex -78.5302 102.773 0
      vertex -77.9821 103.938 0
    endloop
  endfacet
  facet normal 0 0 -1
    outer loop
      vertex -75.5 100 0
      vertex -78.928 101.549 0
      vertex -78.5302 102.773 0
    endloop
  endfacet
  facet normal 0 0 -1
    outer loop
      vertex -79.25 99 0
      vertex -75.5 0 0
      vertex -79.25 0 0
    endloop
  endfacet
  facet normal 0 0 -1
    outer loop
      vertex -75.5 100 0
      vertex -79.1692 100.285 0
      vertex -78.928 101.549 0
    endloop
  endfacet
  facet normal 0 0 -1
    outer loop
      vertex 75.5 0 0
      vertex 79.25 99 0
      vertex 79.25 0 0
    endloop
  endfacet
  facet normal 0 0 -1
    outer loop
      vertex 79.25 99 0
      vertex 75.5 100 0
      vertex 79.1692 100.285 0
    endloop
  endfacet
  facet normal 0 0 -1
    outer loop
      vertex 75.4566 100.689 0
      vertex 79.1692 100.285 0
      vertex 75.5 100 0
    endloop
  endfacet
  facet normal 0 0 -1
    outer loop
      vertex 79.1692 100.285 0
      vertex 75.4566 100.689 0
      vertex 78.928 101.549 0
    endloop
  endfacet
  facet normal 0 0 -1
    outer loop
      vertex 75.3272 101.368 0
      vertex 78.928 101.549 0
      vertex 75.4566 100.689 0
    endloop
  endfacet
  facet normal -0 0 -1
    outer loop
      vertex 78.928 101.549 0
      vertex 75.3272 101.368 0
      vertex 78.5302 102.773 0
    endloop
  endfacet
  facet normal 0 0 -1
    outer loop
      vertex 75.1138 102.025 0
      vertex 78.5302 102.773 0
      vertex 75.3272 101.368 0
    endloop
  endfacet
  facet normal -0 0 -1
    outer loop
      vertex 79.25 99 0
      vertex 75.5 0 0
      vertex 75.5 100 0
    endloop
  endfacet
  facet normal -0 0 -1
    outer loop
      vertex 78.5302 102.773 0
      vertex 75.1138 102.025 0
      vertex 77.9821 103.938 0
    endloop
  endfacet
  facet normal 0 0 -1
    outer loop
      vertex 74.8197 102.65 0
      vertex 77.9821 103.938 0
      vertex 75.1138 102.025 0
    endloop
  endfacet
  facet normal -0 0 -1
    outer loop
      vertex 77.9821 103.938 0
      vertex 74.8197 102.65 0
      vertex 77.2924 105.025 0
    endloop
  endfacet
  facet normal 0 0 -1
    outer loop
      vertex 74.4496 103.233 0
      vertex 77.2924 105.025 0
      vertex 74.8197 102.65 0
    endloop
  endfacet
  facet normal -0 0 -1
    outer loop
      vertex 77.2924 105.025 0
      vertex 74.4496 103.233 0
      vertex 76.4719 106.017 0
    endloop
  endfacet
  facet normal 0 0 -1
    outer loop
      vertex 74.0093 103.765 0
      vertex 76.4719 106.017 0
      vertex 74.4496 103.233 0
    endloop
  endfacet
  facet normal 0 0 -1
    outer loop
      vertex 73.5058 104.238 0
      vertex 76.4719 106.017 0
      vertex 74.0093 103.765 0
    endloop
  endfacet
  facet normal -0 0 -1
    outer loop
      vertex 76.4719 106.017 0
      vertex 73.5058 104.238 0
      vertex 75.5336 106.898 0
    endloop
  endfacet
  facet normal 0 0 -1
    outer loop
      vertex 72.947 104.644 0
      vertex 75.5336 106.898 0
      vertex 73.5058 104.238 0
    endloop
  endfacet
  facet normal -0 0 -1
    outer loop
      vertex 75.5336 106.898 0
      vertex 72.947 104.644 0
      vertex 74.4922 107.654 0
    endloop
  endfacet
  facet normal 0 0 -1
    outer loop
      vertex 72.3418 104.977 0
      vertex 74.4922 107.654 0
      vertex 72.947 104.644 0
    endloop
  endfacet
  facet normal -0 0 -1
    outer loop
      vertex 74.4922 107.654 0
      vertex 72.3418 104.977 0
      vertex 73.3642 108.274 0
    endloop
  endfacet
  facet normal 0 0 -1
    outer loop
      vertex 71.6996 105.231 0
      vertex 73.3642 108.274 0
      vertex 72.3418 104.977 0
    endloop
  endfacet
  facet normal -0 0 -1
    outer loop
      vertex 73.3642 108.274 0
      vertex 71.6996 105.231 0
      vertex 72.1674 108.748 0
    endloop
  endfacet
  facet normal 0 0 -1
    outer loop
      vertex 71.0306 105.403 0
      vertex 72.1674 108.748 0
      vertex 71.6996 105.231 0
    endloop
  endfacet
  facet normal 0 0 -1
    outer loop
      vertex 71.0306 105.403 0
      vertex 70.9207 109.068 0
      vertex 72.1674 108.748 0
    endloop
  endfacet
  facet normal 0 0 -1
    outer loop
      vertex 70.3453 105.489 0
      vertex 70.9207 109.068 0
      vertex 71.0306 105.403 0
    endloop
  endfacet
  facet normal 0 0 -1
    outer loop
      vertex 70.3453 105.489 0
      vertex 69.6436 109.23 0
      vertex 70.9207 109.068 0
    endloop
  endfacet
  facet normal 0 0 -1
    outer loop
      vertex 70.3453 105.489 0
      vertex -69.6436 109.23 0
      vertex 69.6436 109.23 0
    endloop
  endfacet
  facet normal 0 0 -1
    outer loop
      vertex -70.3453 105.489 0
      vertex -69.6436 109.23 0
      vertex 70.3453 105.489 0
    endloop
  endfacet
  facet normal 0 0 -1
    outer loop
      vertex -70.3453 105.489 0
      vertex -70.9207 109.068 0
      vertex -69.6436 109.23 0
    endloop
  endfacet
  facet normal 0 0 -1
    outer loop
      vertex -71.0306 105.403 0
      vertex -70.9207 109.068 0
      vertex -70.3453 105.489 0
    endloop
  endfacet
  facet normal 0 0 -1
    outer loop
      vertex -72.1674 108.748 0
      vertex -71.0306 105.403 0
      vertex -71.6996 105.231 0
    endloop
  endfacet
  facet normal 0 0 -1
    outer loop
      vertex -71.0306 105.403 0
      vertex -72.1674 108.748 0
      vertex -70.9207 109.068 0
    endloop
  endfacet
  facet normal 0 0 -1
    outer loop
      vertex -73.3642 108.274 0
      vertex -71.6996 105.231 0
      vertex -72.3418 104.977 0
    endloop
  endfacet
  facet normal 0 0 -1
    outer loop
      vertex -74.4922 107.654 0
      vertex -72.3418 104.977 0
      vertex -72.947 104.644 0
    endloop
  endfacet
  facet normal 0 0 -1
    outer loop
      vertex -71.6996 105.231 0
      vertex -73.3642 108.274 0
      vertex -72.1674 108.748 0
    endloop
  endfacet
  facet normal 0 0 -1
    outer loop
      vertex -75.5336 106.898 0
      vertex -72.947 104.644 0
      vertex -73.5058 104.238 0
    endloop
  endfacet
  facet normal 0 0 -1
    outer loop
      vertex -75.5336 106.898 0
      vertex -73.5058 104.238 0
      vertex -74.0093 103.765 0
    endloop
  endfacet
  facet normal 0 0 -1
    outer loop
      vertex -75.5336 106.898 0
      vertex -74.0093 103.765 0
      vertex -74.4496 103.233 0
    endloop
  endfacet
  facet normal 0 0 -1
    outer loop
      vertex -72.3418 104.977 0
      vertex -74.4922 107.654 0
      vertex -73.3642 108.274 0
    endloop
  endfacet
  facet normal 0 0 -1
    outer loop
      vertex -75.5336 106.898 0
      vertex -74.4496 103.233 0
      vertex -74.8197 102.65 0
    endloop
  endfacet
  facet normal 0 0 -1
    outer loop
      vertex -75.5336 106.898 0
      vertex -74.8197 102.65 0
      vertex -75.1138 102.025 0
    endloop
  endfacet
  facet normal 0 0 -1
    outer loop
      vertex -75.5336 106.898 0
      vertex -75.1138 102.025 0
      vertex -75.3272 101.368 0
    endloop
  endfacet
  facet normal 0 0 -1
    outer loop
      vertex -75.5336 106.898 0
      vertex -75.3272 101.368 0
      vertex -75.4566 100.689 0
    endloop
  endfacet
  facet normal 0 0 -1
    outer loop
      vertex -72.947 104.644 0
      vertex -75.5336 106.898 0
      vertex -74.4922 107.654 0
    endloop
  endfacet
  facet normal 0 0 -1
    outer loop
      vertex -75.5336 106.898 0
      vertex -75.4566 100.689 0
      vertex -75.5 100 0
    endloop
  endfacet
  facet normal 0.684687 -0.728837 0
    outer loop
      vertex -74.0093 103.765 0
      vertex -73.5058 104.238 18.5
      vertex -74.0093 103.765 18.5
    endloop
  endfacet
  facet normal 0.684687 -0.728837 0
    outer loop
      vertex -73.5058 104.238 18.5
      vertex -74.0093 103.765 0
      vertex -73.5058 104.238 0
    endloop
  endfacet
  facet normal -0.482074 -0.87613 0
    outer loop
      vertex 72.3418 104.977 0
      vertex 72.947 104.644 18.5
      vertex 72.3418 104.977 18.5
    endloop
  endfacet
  facet normal -0.482074 -0.87613 -0
    outer loop
      vertex 72.947 104.644 18.5
      vertex 72.3418 104.977 0
      vertex 72.947 104.644 0
    endloop
  endfacet
  facet normal -0.844251 -0.535948 0
    outer loop
      vertex 74.8197 102.65 0
      vertex 74.4496 103.233 18.5
      vertex 74.4496 103.233 0
    endloop
  endfacet
  facet normal -0.844251 -0.535948 0
    outer loop
      vertex 74.4496 103.233 18.5
      vertex 74.8197 102.65 0
      vertex 74.8197 102.65 18.5
    endloop
  endfacet
  facet normal 0.770377 -0.637588 0
    outer loop
      vertex -74.4496 103.233 18.5
      vertex -74.0093 103.765 0
      vertex -74.0093 103.765 18.5
    endloop
  endfacet
  facet normal 0.770377 -0.637588 0
    outer loop
      vertex -74.0093 103.765 0
      vertex -74.4496 103.233 18.5
      vertex -74.4496 103.233 0
    endloop
  endfacet
  facet normal 0.904829 -0.425776 0
    outer loop
      vertex -75.1138 102.025 18.5
      vertex -74.8197 102.65 0
      vertex -74.8197 102.65 18.5
    endloop
  endfacet
  facet normal 0.904829 -0.425776 0
    outer loop
      vertex -74.8197 102.65 0
      vertex -75.1138 102.025 18.5
      vertex -75.1138 102.025 0
    endloop
  endfacet
  facet normal 0.587793 -0.809011 0
    outer loop
      vertex -73.5058 104.238 0
      vertex -72.947 104.644 18.5
      vertex -73.5058 104.238 18.5
    endloop
  endfacet
  facet normal 0.587793 -0.809011 0
    outer loop
      vertex -72.947 104.644 18.5
      vertex -73.5058 104.238 0
      vertex -72.947 104.644 0
    endloop
  endfacet
  facet normal -0.249002 -0.968503 0
    outer loop
      vertex 71.0306 105.403 0
      vertex 71.6996 105.231 18.5
      vertex 71.0306 105.403 18.5
    endloop
  endfacet
  facet normal -0.249002 -0.968503 -0
    outer loop
      vertex 71.6996 105.231 18.5
      vertex 71.0306 105.403 0
      vertex 71.6996 105.231 0
    endloop
  endfacet
  facet normal -0.367793 -0.929908 0
    outer loop
      vertex 71.6996 105.231 0
      vertex 72.3418 104.977 18.5
      vertex 71.6996 105.231 18.5
    endloop
  endfacet
  facet normal -0.367793 -0.929908 -0
    outer loop
      vertex 72.3418 104.977 18.5
      vertex 71.6996 105.231 0
      vertex 72.3418 104.977 0
    endloop
  endfacet
  facet normal -0.684687 -0.728837 0
    outer loop
      vertex 73.5058 104.238 0
      vertex 74.0093 103.765 18.5
      vertex 73.5058 104.238 18.5
    endloop
  endfacet
  facet normal -0.684687 -0.728837 -0
    outer loop
      vertex 74.0093 103.765 18.5
      vertex 73.5058 104.238 0
      vertex 74.0093 103.765 0
    endloop
  endfacet
  facet normal -0.770377 -0.637588 0
    outer loop
      vertex 74.4496 103.233 0
      vertex 74.0093 103.765 18.5
      vertex 74.0093 103.765 0
    endloop
  endfacet
  facet normal -0.770377 -0.637588 0
    outer loop
      vertex 74.0093 103.765 18.5
      vertex 74.4496 103.233 0
      vertex 74.4496 103.233 18.5
    endloop
  endfacet
  facet normal -0.587793 -0.809011 0
    outer loop
      vertex 72.947 104.644 0
      vertex 73.5058 104.238 18.5
      vertex 72.947 104.644 18.5
    endloop
  endfacet
  facet normal -0.587793 -0.809011 -0
    outer loop
      vertex 73.5058 104.238 18.5
      vertex 72.947 104.644 0
      vertex 73.5058 104.238 0
    endloop
  endfacet
  facet normal -0.904829 -0.425776 0
    outer loop
      vertex 75.1138 102.025 0
      vertex 74.8197 102.65 18.5
      vertex 74.8197 102.65 0
    endloop
  endfacet
  facet normal -0.904829 -0.425776 0
    outer loop
      vertex 74.8197 102.65 18.5
      vertex 75.1138 102.025 0
      vertex 75.1138 102.025 18.5
    endloop
  endfacet
  facet normal -0.998022 -0.0628652 0
    outer loop
      vertex 75.5 100 0
      vertex 75.4566 100.689 18.5
      vertex 75.4566 100.689 0
    endloop
  endfacet
  facet normal -0.998022 -0.0628652 0
    outer loop
      vertex 75.4566 100.689 18.5
      vertex 75.5 100 0
      vertex 75.5 100 18.5
    endloop
  endfacet
  facet normal -0.951087 -0.308922 0
    outer loop
      vertex 75.3272 101.368 0
      vertex 75.1138 102.025 18.5
      vertex 75.1138 102.025 0
    endloop
  endfacet
  facet normal -0.951087 -0.308922 0
    outer loop
      vertex 75.1138 102.025 18.5
      vertex 75.3272 101.368 0
      vertex 75.3272 101.368 18.5
    endloop
  endfacet
  facet normal 0.982321 -0.187205 0
    outer loop
      vertex -75.4566 100.689 18.5
      vertex -75.3272 101.368 0
      vertex -75.3272 101.368 18.5
    endloop
  endfacet
  facet normal 0.982321 -0.187205 0
    outer loop
      vertex -75.3272 101.368 0
      vertex -75.4566 100.689 18.5
      vertex -75.4566 100.689 0
    endloop
  endfacet
  facet normal 0.951087 -0.308922 0
    outer loop
      vertex -75.3272 101.368 18.5
      vertex -75.1138 102.025 0
      vertex -75.1138 102.025 18.5
    endloop
  endfacet
  facet normal 0.951087 -0.308922 0
    outer loop
      vertex -75.1138 102.025 0
      vertex -75.3272 101.368 18.5
      vertex -75.3272 101.368 0
    endloop
  endfacet
  facet normal 0.844251 -0.535948 0
    outer loop
      vertex -74.8197 102.65 18.5
      vertex -74.4496 103.233 0
      vertex -74.4496 103.233 18.5
    endloop
  endfacet
  facet normal 0.844251 -0.535948 0
    outer loop
      vertex -74.4496 103.233 0
      vertex -74.8197 102.65 18.5
      vertex -74.8197 102.65 0
    endloop
  endfacet
  facet normal 0.367793 -0.929908 0
    outer loop
      vertex -72.3418 104.977 0
      vertex -71.6996 105.231 18.5
      vertex -72.3418 104.977 18.5
    endloop
  endfacet
  facet normal 0.367793 -0.929908 0
    outer loop
      vertex -71.6996 105.231 18.5
      vertex -72.3418 104.977 0
      vertex -71.6996 105.231 0
    endloop
  endfacet
  facet normal 0.249002 -0.968503 0
    outer loop
      vertex -71.6996 105.231 0
      vertex -71.0306 105.403 18.5
      vertex -71.6996 105.231 18.5
    endloop
  endfacet
  facet normal 0.249002 -0.968503 0
    outer loop
      vertex -71.0306 105.403 18.5
      vertex -71.6996 105.231 0
      vertex -71.0306 105.403 0
    endloop
  endfacet
  facet normal -0.982321 -0.187205 0
    outer loop
      vertex 75.4566 100.689 0
      vertex 75.3272 101.368 18.5
      vertex 75.3272 101.368 0
    endloop
  endfacet
  facet normal -0.982321 -0.187205 0
    outer loop
      vertex 75.3272 101.368 18.5
      vertex 75.4566 100.689 0
      vertex 75.4566 100.689 18.5
    endloop
  endfacet
  facet normal 0.482074 -0.87613 0
    outer loop
      vertex -72.947 104.644 0
      vertex -72.3418 104.977 18.5
      vertex -72.947 104.644 18.5
    endloop
  endfacet
  facet normal 0.482074 -0.87613 0
    outer loop
      vertex -72.3418 104.977 18.5
      vertex -72.947 104.644 0
      vertex -72.3418 104.977 0
    endloop
  endfacet
  facet normal -1 0 0
    outer loop
      vertex -79.25 0 0
      vertex -79.25 99 18.5
      vertex -79.25 99 0
    endloop
  endfacet
  facet normal -1 -0 0
    outer loop
      vertex -79.25 99 18.5
      vertex -79.25 0 0
      vertex -79.25 0 18.5
    endloop
  endfacet
  facet normal 1 -0 0
    outer loop
      vertex 79.25 0 18.5
      vertex 79.25 99 0
      vertex 79.25 99 18.5
    endloop
  endfacet
  facet normal 1 0 0
    outer loop
      vertex 79.25 99 0
      vertex 79.25 0 18.5
      vertex 79.25 0 0
    endloop
  endfacet
  facet normal 0 -1 0
    outer loop
      vertex 75.5 0 0
      vertex 79.25 0 18.5
      vertex 75.5 0 18.5
    endloop
  endfacet
  facet normal 0 -1 -0
    outer loop
      vertex 79.25 0 18.5
      vertex 75.5 0 0
      vertex 79.25 0 0
    endloop
  endfacet
  facet normal 0 -1 0
    outer loop
      vertex -79.25 0 0
      vertex -75.5 0 18.5
      vertex -79.25 0 18.5
    endloop
  endfacet
  facet normal 0 -1 -0
    outer loop
      vertex -75.5 0 18.5
      vertex -79.25 0 0
      vertex -75.5 0 0
    endloop
  endfacet
  facet normal 0.125841 0.99205 -0
    outer loop
      vertex 70.9207 109.068 0
      vertex 69.6436 109.23 18.5
      vertex 70.9207 109.068 18.5
    endloop
  endfacet
  facet normal 0.125841 0.99205 0
    outer loop
      vertex 69.6436 109.23 18.5
      vertex 70.9207 109.068 0
      vertex 69.6436 109.23 0
    endloop
  endfacet
  facet normal 0 1 -0
    outer loop
      vertex 69.6436 109.23 0
      vertex -69.6436 109.23 18.5
      vertex 69.6436 109.23 18.5
    endloop
  endfacet
  facet normal 0 1 0
    outer loop
      vertex -69.6436 109.23 18.5
      vertex 69.6436 109.23 0
      vertex -69.6436 109.23 0
    endloop
  endfacet
  facet normal -0.125841 0.99205 0
    outer loop
      vertex -69.6436 109.23 0
      vertex -70.9207 109.068 18.5
      vertex -69.6436 109.23 18.5
    endloop
  endfacet
  facet normal -0.125841 0.99205 0
    outer loop
      vertex -70.9207 109.068 18.5
      vertex -69.6436 109.23 0
      vertex -70.9207 109.068 0
    endloop
  endfacet
  facet normal 0.248618 0.968602 -0
    outer loop
      vertex 72.1674 108.748 0
      vertex 70.9207 109.068 18.5
      vertex 72.1674 108.748 18.5
    endloop
  endfacet
  facet normal 0.248618 0.968602 0
    outer loop
      vertex 70.9207 109.068 18.5
      vertex 72.1674 108.748 0
      vertex 70.9207 109.068 0
    endloop
  endfacet
  facet normal 0.770572 0.637353 0
    outer loop
      vertex 77.2924 105.025 18.5
      vertex 76.4719 106.017 0
      vertex 76.4719 106.017 18.5
    endloop
  endfacet
  facet normal 0.770572 0.637353 0
    outer loop
      vertex 76.4719 106.017 0
      vertex 77.2924 105.025 18.5
      vertex 77.2924 105.025 0
    endloop
  endfacet
  facet normal -0.587469 0.809247 0
    outer loop
      vertex -74.4922 107.654 0
      vertex -75.5336 106.898 18.5
      vertex -74.4922 107.654 18.5
    endloop
  endfacet
  facet normal -0.587469 0.809247 0
    outer loop
      vertex -75.5336 106.898 18.5
      vertex -74.4922 107.654 0
      vertex -75.5336 106.898 0
    endloop
  endfacet
  facet normal -0.998029 0.0627554 0
    outer loop
      vertex -79.25 99 0
      vertex -79.1692 100.285 18.5
      vertex -79.1692 100.285 0
    endloop
  endfacet
  facet normal -0.998029 0.0627554 0
    outer loop
      vertex -79.1692 100.285 18.5
      vertex -79.25 99 0
      vertex -79.25 99 18.5
    endloop
  endfacet
  facet normal -0.982276 0.187441 0
    outer loop
      vertex -79.1692 100.285 0
      vertex -78.928 101.549 18.5
      vertex -78.928 101.549 0
    endloop
  endfacet
  facet normal -0.982276 0.187441 0
    outer loop
      vertex -78.928 101.549 18.5
      vertex -79.1692 100.285 0
      vertex -79.1692 100.285 18.5
    endloop
  endfacet
  facet normal 0.368228 0.929736 -0
    outer loop
      vertex 73.3642 108.274 0
      vertex 72.1674 108.748 18.5
      vertex 73.3642 108.274 18.5
    endloop
  endfacet
  facet normal 0.368228 0.929736 0
    outer loop
      vertex 72.1674 108.748 18.5
      vertex 73.3642 108.274 0
      vertex 72.1674 108.748 0
    endloop
  endfacet
  facet normal 0.587469 0.809247 -0
    outer loop
      vertex 75.5336 106.898 0
      vertex 74.4922 107.654 18.5
      vertex 75.5336 106.898 18.5
    endloop
  endfacet
  facet normal 0.587469 0.809247 0
    outer loop
      vertex 74.4922 107.654 18.5
      vertex 75.5336 106.898 0
      vertex 74.4922 107.654 0
    endloop
  endfacet
  facet normal 0.684497 0.729016 -0
    outer loop
      vertex 76.4719 106.017 0
      vertex 75.5336 106.898 18.5
      vertex 76.4719 106.017 18.5
    endloop
  endfacet
  facet normal 0.684497 0.729016 0
    outer loop
      vertex 75.5336 106.898 18.5
      vertex 76.4719 106.017 0
      vertex 75.5336 106.898 0
    endloop
  endfacet
  facet normal -0.368228 0.929736 0
    outer loop
      vertex -72.1674 108.748 0
      vertex -73.3642 108.274 18.5
      vertex -72.1674 108.748 18.5
    endloop
  endfacet
  facet normal -0.368228 0.929736 0
    outer loop
      vertex -73.3642 108.274 18.5
      vertex -72.1674 108.748 0
      vertex -73.3642 108.274 0
    endloop
  endfacet
  facet normal 0.48168 0.876347 -0
    outer loop
      vertex 74.4922 107.654 0
      vertex 73.3642 108.274 18.5
      vertex 74.4922 107.654 18.5
    endloop
  endfacet
  facet normal 0.48168 0.876347 0
    outer loop
      vertex 73.3642 108.274 18.5
      vertex 74.4922 107.654 0
      vertex 73.3642 108.274 0
    endloop
  endfacet
  facet normal 0.904859 0.425711 0
    outer loop
      vertex 78.5302 102.773 18.5
      vertex 77.9821 103.938 0
      vertex 77.9821 103.938 18.5
    endloop
  endfacet
  facet normal 0.904859 0.425711 0
    outer loop
      vertex 77.9821 103.938 0
      vertex 78.5302 102.773 18.5
      vertex 78.5302 102.773 0
    endloop
  endfacet
  facet normal 0.951034 0.309086 0
    outer loop
      vertex 78.928 101.549 18.5
      vertex 78.5302 102.773 0
      vertex 78.5302 102.773 18.5
    endloop
  endfacet
  facet normal 0.951034 0.309086 0
    outer loop
      vertex 78.5302 102.773 0
      vertex 78.928 101.549 18.5
      vertex 78.928 101.549 0
    endloop
  endfacet
  facet normal 0.998029 0.0627554 0
    outer loop
      vertex 79.25 99 18.5
      vertex 79.1692 100.285 0
      vertex 79.1692 100.285 18.5
    endloop
  endfacet
  facet normal 0.998029 0.0627554 0
    outer loop
      vertex 79.1692 100.285 0
      vertex 79.25 99 18.5
      vertex 79.25 99 0
    endloop
  endfacet
  facet normal -0.904859 0.425711 0
    outer loop
      vertex -78.5302 102.773 0
      vertex -77.9821 103.938 18.5
      vertex -77.9821 103.938 0
    endloop
  endfacet
  facet normal -0.904859 0.425711 0
    outer loop
      vertex -77.9821 103.938 18.5
      vertex -78.5302 102.773 0
      vertex -78.5302 102.773 18.5
    endloop
  endfacet
  facet normal -0.844374 0.535754 0
    outer loop
      vertex -77.9821 103.938 0
      vertex -77.2924 105.025 18.5
      vertex -77.2924 105.025 0
    endloop
  endfacet
  facet normal -0.844374 0.535754 0
    outer loop
      vertex -77.2924 105.025 18.5
      vertex -77.9821 103.938 0
      vertex -77.9821 103.938 18.5
    endloop
  endfacet
  facet normal -0.684497 0.729016 0
    outer loop
      vertex -75.5336 106.898 0
      vertex -76.4719 106.017 18.5
      vertex -75.5336 106.898 18.5
    endloop
  endfacet
  facet normal -0.684497 0.729016 0
    outer loop
      vertex -76.4719 106.017 18.5
      vertex -75.5336 106.898 0
      vertex -76.4719 106.017 0
    endloop
  endfacet
  facet normal -0.248618 0.968602 0
    outer loop
      vertex -70.9207 109.068 0
      vertex -72.1674 108.748 18.5
      vertex -70.9207 109.068 18.5
    endloop
  endfacet
  facet normal -0.248618 0.968602 0
    outer loop
      vertex -72.1674 108.748 18.5
      vertex -70.9207 109.068 0
      vertex -72.1674 108.748 0
    endloop
  endfacet
  facet normal -0.48168 0.876347 0
    outer loop
      vertex -73.3642 108.274 0
      vertex -74.4922 107.654 18.5
      vertex -73.3642 108.274 18.5
    endloop
  endfacet
  facet normal -0.48168 0.876347 0
    outer loop
      vertex -74.4922 107.654 18.5
      vertex -73.3642 108.274 0
      vertex -74.4922 107.654 0
    endloop
  endfacet
  facet normal 0.844374 0.535754 0
    outer loop
      vertex 77.9821 103.938 18.5
      vertex 77.2924 105.025 0
      vertex 77.2924 105.025 18.5
    endloop
  endfacet
  facet normal 0.844374 0.535754 0
    outer loop
      vertex 77.2924 105.025 0
      vertex 77.9821 103.938 18.5
      vertex 77.9821 103.938 0
    endloop
  endfacet
  facet normal 0.982276 0.187441 0
    outer loop
      vertex 79.1692 100.285 18.5
      vertex 78.928 101.549 0
      vertex 78.928 101.549 18.5
    endloop
  endfacet
  facet normal 0.982276 0.187441 0
    outer loop
      vertex 78.928 101.549 0
      vertex 79.1692 100.285 18.5
      vertex 79.1692 100.285 0
    endloop
  endfacet
  facet normal -0.951034 0.309086 0
    outer loop
      vertex -78.928 101.549 0
      vertex -78.5302 102.773 18.5
      vertex -78.5302 102.773 0
    endloop
  endfacet
  facet normal -0.951034 0.309086 0
    outer loop
      vertex -78.5302 102.773 18.5
      vertex -78.928 101.549 0
      vertex -78.928 101.549 18.5
    endloop
  endfacet
  facet normal -0.770572 0.637353 0
    outer loop
      vertex -77.2924 105.025 0
      vertex -76.4719 106.017 18.5
      vertex -76.4719 106.017 0
    endloop
  endfacet
  facet normal -0.770572 0.637353 0
    outer loop
      vertex -76.4719 106.017 18.5
      vertex -77.2924 105.025 0
      vertex -77.2924 105.025 18.5
    endloop
  endfacet
endsolid OpenSCAD_Model
