solid OpenSCAD_Model
  facet normal 0 1 -0
    outer loop
      vertex -45.8929 83.7303 0
      vertex -54.3779 83.7303 1
      vertex -45.8929 83.7303 1
    endloop
  endfacet
  facet normal 0 1 0
    outer loop
      vertex -54.3779 83.7303 1
      vertex -45.8929 83.7303 0
      vertex -54.3779 83.7303 0
    endloop
  endfacet
  facet normal -0.125338 0.992114 0
    outer loop
      vertex -54.3779 83.7303 0
      vertex -55.6238 83.5729 1
      vertex -54.3779 83.7303 1
    endloop
  endfacet
  facet normal -0.125338 0.992114 0
    outer loop
      vertex -55.6238 83.5729 1
      vertex -54.3779 83.7303 0
      vertex -55.6238 83.5729 0
    endloop
  endfacet
  facet normal -0.6845 0.729013 0
    outer loop
      vertex -60.1242 81.4551 0
      vertex -61.0397 80.5955 1
      vertex -60.1242 81.4551 1
    endloop
  endfacet
  facet normal -0.6845 0.729013 0
    outer loop
      vertex -61.0397 80.5955 1
      vertex -60.1242 81.4551 0
      vertex -61.0397 80.5955 0
    endloop
  endfacet
  facet normal -0.368135 0.929773 0
    outer loop
      vertex -56.8402 83.2606 0
      vertex -58.0078 82.7983 1
      vertex -56.8402 83.2606 1
    endloop
  endfacet
  facet normal -0.368135 0.929773 0
    outer loop
      vertex -58.0078 82.7983 1
      vertex -56.8402 83.2606 0
      vertex -58.0078 82.7983 0
    endloop
  endfacet
  facet normal -1 0 0
    outer loop
      vertex -63.75 63.1875 0
      vertex -63.75 73.75 1
      vertex -63.75 73.75 0
    endloop
  endfacet
  facet normal -1 -0 0
    outer loop
      vertex -63.75 73.75 1
      vertex -63.75 63.1875 0
      vertex -63.75 63.1875 1
    endloop
  endfacet
  facet normal -0.998024 0.0628294 0
    outer loop
      vertex -63.75 73.75 0
      vertex -63.6711 75.0033 1
      vertex -63.6711 75.0033 0
    endloop
  endfacet
  facet normal -0.998024 0.0628294 0
    outer loop
      vertex -63.6711 75.0033 1
      vertex -63.75 73.75 0
      vertex -63.75 73.75 1
    endloop
  endfacet
  facet normal -0.98229 0.187365 0
    outer loop
      vertex -63.6711 75.0033 0
      vertex -63.4358 76.2369 1
      vertex -63.4358 76.2369 0
    endloop
  endfacet
  facet normal -0.98229 0.187365 0
    outer loop
      vertex -63.4358 76.2369 1
      vertex -63.6711 75.0033 0
      vertex -63.6711 75.0033 1
    endloop
  endfacet
  facet normal -0.481751 0.876308 0
    outer loop
      vertex -58.0078 82.7983 0
      vertex -59.1083 82.1933 1
      vertex -58.0078 82.7983 1
    endloop
  endfacet
  facet normal -0.481751 0.876308 0
    outer loop
      vertex -59.1083 82.1933 1
      vertex -58.0078 82.7983 0
      vertex -59.1083 82.1933 0
    endloop
  endfacet
  facet normal -0 0 1
    outer loop
      vertex -54.8779 84.2303 15.5
      vertex -49.25 82.7342 15.5
      vertex -49.25 84.2303 15.5
    endloop
  endfacet
  facet normal 0 0 1
    outer loop
      vertex -54.8779 84.2303 15.5
      vertex -55.2523 82.7342 15.5
      vertex -49.25 82.7342 15.5
    endloop
  endfacet
  facet normal -0 0 1
    outer loop
      vertex -56.1238 84.0729 15.5
      vertex -55.2523 82.7342 15.5
      vertex -54.8779 84.2303 15.5
    endloop
  endfacet
  facet normal 0 0 1
    outer loop
      vertex -56.1238 84.0729 15.5
      vertex -56.2491 82.6083 15.5
      vertex -55.2523 82.7342 15.5
    endloop
  endfacet
  facet normal -0 0 1
    outer loop
      vertex -57.3402 83.7606 15.5
      vertex -56.2491 82.6083 15.5
      vertex -56.1238 84.0729 15.5
    endloop
  endfacet
  facet normal 0 0 1
    outer loop
      vertex -56.2491 82.6083 15.5
      vertex -57.3402 83.7606 15.5
      vertex -57.2221 82.3585 15.5
    endloop
  endfacet
  facet normal -0 0 1
    outer loop
      vertex -58.5078 83.2983 15.5
      vertex -57.2221 82.3585 15.5
      vertex -57.3402 83.7606 15.5
    endloop
  endfacet
  facet normal 0 0 1
    outer loop
      vertex -57.2221 82.3585 15.5
      vertex -58.5078 83.2983 15.5
      vertex -58.1562 81.9886 15.5
    endloop
  endfacet
  facet normal -0 0 1
    outer loop
      vertex -59.6083 82.6933 15.5
      vertex -58.1562 81.9886 15.5
      vertex -58.5078 83.2983 15.5
    endloop
  endfacet
  facet normal 0 0 1
    outer loop
      vertex -58.1562 81.9886 15.5
      vertex -59.6083 82.6933 15.5
      vertex -59.0366 81.5046 15.5
    endloop
  endfacet
  facet normal -0 0 1
    outer loop
      vertex -60.6242 81.9551 15.5
      vertex -59.0366 81.5046 15.5
      vertex -59.6083 82.6933 15.5
    endloop
  endfacet
  facet normal 0 0 1
    outer loop
      vertex -59.0366 81.5046 15.5
      vertex -60.6242 81.9551 15.5
      vertex -59.8494 80.9141 15.5
    endloop
  endfacet
  facet normal -0 0 1
    outer loop
      vertex -61.5397 81.0955 15.5
      vertex -59.8494 80.9141 15.5
      vertex -60.6242 81.9551 15.5
    endloop
  endfacet
  facet normal 0 0 1
    outer loop
      vertex -59.8494 80.9141 15.5
      vertex -61.5397 81.0955 15.5
      vertex -60.5817 80.2264 15.5
    endloop
  endfacet
  facet normal 0 0 1
    outer loop
      vertex -60.5817 80.2264 15.5
      vertex -61.5397 81.0955 15.5
      vertex -61.2221 79.4523 15.5
    endloop
  endfacet
  facet normal -0 0 1
    outer loop
      vertex -62.3402 80.1279 15.5
      vertex -61.2221 79.4523 15.5
      vertex -61.5397 81.0955 15.5
    endloop
  endfacet
  facet normal 0 0 1
    outer loop
      vertex -61.2221 79.4523 15.5
      vertex -62.3402 80.1279 15.5
      vertex -61.7605 78.604 15.5
    endloop
  endfacet
  facet normal -0 0 1
    outer loop
      vertex -63.0131 79.0675 15.5
      vertex -61.7605 78.604 15.5
      vertex -62.3402 80.1279 15.5
    endloop
  endfacet
  facet normal 0 0 1
    outer loop
      vertex -61.7605 78.604 15.5
      vertex -63.0131 79.0675 15.5
      vertex -62.1882 77.695 15.5
    endloop
  endfacet
  facet normal -0 0 1
    outer loop
      vertex -63.5478 77.9312 15.5
      vertex -62.1882 77.695 15.5
      vertex -63.0131 79.0675 15.5
    endloop
  endfacet
  facet normal 0 0 1
    outer loop
      vertex -62.1882 77.695 15.5
      vertex -63.5478 77.9312 15.5
      vertex -62.4987 76.7395 15.5
    endloop
  endfacet
  facet normal 0 0 1
    outer loop
      vertex -63.9358 76.7369 15.5
      vertex -62.4987 76.7395 15.5
      vertex -63.5478 77.9312 15.5
    endloop
  endfacet
  facet normal 0 0 1
    outer loop
      vertex -62.4987 76.7395 15.5
      vertex -63.9358 76.7369 15.5
      vertex -62.6869 75.7527 15.5
    endloop
  endfacet
  facet normal 0 0 1
    outer loop
      vertex -64.1711 75.5033 15.5
      vertex -62.6869 75.7527 15.5
      vertex -63.9358 76.7369 15.5
    endloop
  endfacet
  facet normal 0 0 1
    outer loop
      vertex -62.6869 75.7527 15.5
      vertex -64.1711 75.5033 15.5
      vertex -62.75 74.75 15.5
    endloop
  endfacet
  facet normal 0 0 1
    outer loop
      vertex -64.25 74.25 15.5
      vertex -62.75 74.75 15.5
      vertex -64.1711 75.5033 15.5
    endloop
  endfacet
  facet normal 0 0 1
    outer loop
      vertex -62.75 74.75 15.5
      vertex -64.25 74.25 15.5
      vertex -62.75 69.25 15.5
    endloop
  endfacet
  facet normal 0 0 1
    outer loop
      vertex -62.75 69.25 15.5
      vertex -64.25 74.25 15.5
      vertex -64.25 69.25 15.5
    endloop
  endfacet
  facet normal -0.248676 0.968587 0
    outer loop
      vertex -55.6238 83.5729 0
      vertex -56.8402 83.2606 1
      vertex -55.6238 83.5729 1
    endloop
  endfacet
  facet normal -0.248676 0.968587 0
    outer loop
      vertex -56.8402 83.2606 1
      vertex -55.6238 83.5729 0
      vertex -56.8402 83.2606 0
    endloop
  endfacet
  facet normal -0.58784 0.808977 0
    outer loop
      vertex -59.1083 82.1933 0
      vertex -60.1242 81.4551 1
      vertex -59.1083 82.1933 1
    endloop
  endfacet
  facet normal -0.58784 0.808977 0
    outer loop
      vertex -60.1242 81.4551 1
      vertex -59.1083 82.1933 0
      vertex -60.1242 81.4551 0
    endloop
  endfacet
  facet normal 0 0 -1
    outer loop
      vertex -63.75 63.1875 0
      vertex -60.5 70 0
      vertex -60.5 63.1875 0
    endloop
  endfacet
  facet normal 0 -0 -1
    outer loop
      vertex -63.6711 75.0033 0
      vertex -60.5 70 0
      vertex -63.75 73.75 0
    endloop
  endfacet
  facet normal 0 0 -1
    outer loop
      vertex -60.5 70 0
      vertex -61.8402 79.6279 0
      vertex -61.0397 80.5955 0
    endloop
  endfacet
  facet normal 0 0 -1
    outer loop
      vertex -60.5 70 0
      vertex -62.5131 78.5675 0
      vertex -61.8402 79.6279 0
    endloop
  endfacet
  facet normal 0 0 -1
    outer loop
      vertex -60.5 70 0
      vertex -63.0478 77.4312 0
      vertex -62.5131 78.5675 0
    endloop
  endfacet
  facet normal 0 0 -1
    outer loop
      vertex -60.5 70 0
      vertex -63.4358 76.2369 0
      vertex -63.0478 77.4312 0
    endloop
  endfacet
  facet normal -0 0 -1
    outer loop
      vertex -60.5 70 0
      vertex -63.75 63.1875 0
      vertex -63.75 73.75 0
    endloop
  endfacet
  facet normal 0 0 -1
    outer loop
      vertex -60.5 70 0
      vertex -63.6711 75.0033 0
      vertex -63.4358 76.2369 0
    endloop
  endfacet
  facet normal 0 0 -1
    outer loop
      vertex -45.8929 75.4891 0
      vertex -54.3779 83.7303 0
      vertex -45.8929 83.7303 0
    endloop
  endfacet
  facet normal 0 0 -1
    outer loop
      vertex -55.3453 75.4891 0
      vertex -54.3779 83.7303 0
      vertex -45.8929 75.4891 0
    endloop
  endfacet
  facet normal 0 0 -1
    outer loop
      vertex -55.3453 75.4891 0
      vertex -55.6238 83.5729 0
      vertex -54.3779 83.7303 0
    endloop
  endfacet
  facet normal 0 0 -1
    outer loop
      vertex -58.0078 82.7983 0
      vertex -55.3453 75.4891 0
      vertex -56.0306 75.4026 0
    endloop
  endfacet
  facet normal 0 0 -1
    outer loop
      vertex -59.1083 82.1933 0
      vertex -56.0306 75.4026 0
      vertex -56.6996 75.2308 0
    endloop
  endfacet
  facet normal 0 0 -1
    outer loop
      vertex -55.3453 75.4891 0
      vertex -56.8402 83.2606 0
      vertex -55.6238 83.5729 0
    endloop
  endfacet
  facet normal 0 0 -1
    outer loop
      vertex -61.0397 80.5955 0
      vertex -56.6996 75.2308 0
      vertex -57.3418 74.9765 0
    endloop
  endfacet
  facet normal 0 0 -1
    outer loop
      vertex -61.0397 80.5955 0
      vertex -57.3418 74.9765 0
      vertex -57.947 74.6438 0
    endloop
  endfacet
  facet normal 0 0 -1
    outer loop
      vertex -55.3453 75.4891 0
      vertex -58.0078 82.7983 0
      vertex -56.8402 83.2606 0
    endloop
  endfacet
  facet normal 0 0 -1
    outer loop
      vertex -61.0397 80.5955 0
      vertex -57.947 74.6438 0
      vertex -58.5058 74.2378 0
    endloop
  endfacet
  facet normal 0 0 -1
    outer loop
      vertex -61.0397 80.5955 0
      vertex -58.5058 74.2378 0
      vertex -59.0093 73.765 0
    endloop
  endfacet
  facet normal 0 0 -1
    outer loop
      vertex -56.0306 75.4026 0
      vertex -59.1083 82.1933 0
      vertex -58.0078 82.7983 0
    endloop
  endfacet
  facet normal 0 0 -1
    outer loop
      vertex -61.0397 80.5955 0
      vertex -59.0093 73.765 0
      vertex -59.4496 73.2328 0
    endloop
  endfacet
  facet normal 0 0 -1
    outer loop
      vertex -61.0397 80.5955 0
      vertex -59.4496 73.2328 0
      vertex -59.8197 72.6496 0
    endloop
  endfacet
  facet normal 0 0 -1
    outer loop
      vertex -61.0397 80.5955 0
      vertex -59.8197 72.6496 0
      vertex -60.1138 72.0247 0
    endloop
  endfacet
  facet normal 0 0 -1
    outer loop
      vertex -56.6996 75.2308 0
      vertex -60.1242 81.4551 0
      vertex -59.1083 82.1933 0
    endloop
  endfacet
  facet normal 0 0 -1
    outer loop
      vertex -61.0397 80.5955 0
      vertex -60.1138 72.0247 0
      vertex -60.3272 71.3678 0
    endloop
  endfacet
  facet normal 0 0 -1
    outer loop
      vertex -61.0397 80.5955 0
      vertex -60.3272 71.3678 0
      vertex -60.4566 70.6893 0
    endloop
  endfacet
  facet normal 0 0 -1
    outer loop
      vertex -61.0397 80.5955 0
      vertex -60.4566 70.6893 0
      vertex -60.5 70 0
    endloop
  endfacet
  facet normal 0 0 -1
    outer loop
      vertex -56.6996 75.2308 0
      vertex -61.0397 80.5955 0
      vertex -60.1242 81.4551 0
    endloop
  endfacet
  facet normal -0.951069 0.30898 0
    outer loop
      vertex -63.4358 76.2369 0
      vertex -63.0478 77.4312 1
      vertex -63.0478 77.4312 0
    endloop
  endfacet
  facet normal -0.951069 0.30898 0
    outer loop
      vertex -63.0478 77.4312 1
      vertex -63.4358 76.2369 0
      vertex -63.4358 76.2369 1
    endloop
  endfacet
  facet normal -0.904828 0.425778 0
    outer loop
      vertex -63.0478 77.4312 0
      vertex -62.5131 78.5675 1
      vertex -62.5131 78.5675 0
    endloop
  endfacet
  facet normal -0.904828 0.425778 0
    outer loop
      vertex -62.5131 78.5675 1
      vertex -63.0478 77.4312 0
      vertex -63.0478 77.4312 1
    endloop
  endfacet
  facet normal -0.770501 0.637439 0
    outer loop
      vertex -61.8402 79.6279 0
      vertex -61.0397 80.5955 1
      vertex -61.0397 80.5955 0
    endloop
  endfacet
  facet normal -0.770501 0.637439 0
    outer loop
      vertex -61.0397 80.5955 1
      vertex -61.8402 79.6279 0
      vertex -61.8402 79.6279 1
    endloop
  endfacet
  facet normal -0.844346 0.535798 0
    outer loop
      vertex -62.5131 78.5675 0
      vertex -61.8402 79.6279 1
      vertex -61.8402 79.6279 0
    endloop
  endfacet
  facet normal -0.844346 0.535798 0
    outer loop
      vertex -61.8402 79.6279 1
      vertex -62.5131 78.5675 0
      vertex -62.5131 78.5675 1
    endloop
  endfacet
  facet normal 0 1 -0
    outer loop
      vertex -49.25 84.2303 1
      vertex -54.8779 84.2303 15.5
      vertex -49.25 84.2303 15.5
    endloop
  endfacet
  facet normal 0 1 0
    outer loop
      vertex -54.8779 84.2303 15.5
      vertex -49.25 84.2303 1
      vertex -54.8779 84.2303 1
    endloop
  endfacet
  facet normal -0.998024 0.0628294 0
    outer loop
      vertex -64.25 74.25 1
      vertex -64.1711 75.5033 15.5
      vertex -64.1711 75.5033 1
    endloop
  endfacet
  facet normal -0.998024 0.0628294 0
    outer loop
      vertex -64.1711 75.5033 15.5
      vertex -64.25 74.25 1
      vertex -64.25 74.25 15.5
    endloop
  endfacet
  facet normal -0.125338 0.992114 0
    outer loop
      vertex -54.8779 84.2303 1
      vertex -56.1238 84.0729 15.5
      vertex -54.8779 84.2303 15.5
    endloop
  endfacet
  facet normal -0.125338 0.992114 0
    outer loop
      vertex -56.1238 84.0729 15.5
      vertex -54.8779 84.2303 1
      vertex -56.1238 84.0729 1
    endloop
  endfacet
  facet normal -1 0 0
    outer loop
      vertex -64.25 74.25 1
      vertex -64.25 69.25 15.5
      vertex -64.25 74.25 15.5
    endloop
  endfacet
  facet normal -1 0 0
    outer loop
      vertex -64.25 63.1875 1
      vertex -64.25 69.25 15.5
      vertex -64.25 74.25 1
    endloop
  endfacet
  facet normal -1 0 0
    outer loop
      vertex -64.25 63.1875 16.5
      vertex -64.25 69.25 15.5
      vertex -64.25 63.1875 1
    endloop
  endfacet
  facet normal -1 0 0
    outer loop
      vertex -64.25 69.25 15.5
      vertex -64.25 63.1875 16.5
      vertex -64.25 69.25 16.5
    endloop
  endfacet
  facet normal -0.368135 0.929773 0
    outer loop
      vertex -57.3402 83.7606 1
      vertex -58.5078 83.2983 15.5
      vertex -57.3402 83.7606 15.5
    endloop
  endfacet
  facet normal -0.368135 0.929773 0
    outer loop
      vertex -58.5078 83.2983 15.5
      vertex -57.3402 83.7606 1
      vertex -58.5078 83.2983 1
    endloop
  endfacet
  facet normal -0.481751 0.876308 0
    outer loop
      vertex -58.5078 83.2983 1
      vertex -59.6083 82.6933 15.5
      vertex -58.5078 83.2983 15.5
    endloop
  endfacet
  facet normal -0.481751 0.876308 0
    outer loop
      vertex -59.6083 82.6933 15.5
      vertex -58.5078 83.2983 1
      vertex -59.6083 82.6933 1
    endloop
  endfacet
  facet normal -0.248676 0.968587 0
    outer loop
      vertex -56.1238 84.0729 1
      vertex -57.3402 83.7606 15.5
      vertex -56.1238 84.0729 15.5
    endloop
  endfacet
  facet normal -0.248676 0.968587 0
    outer loop
      vertex -57.3402 83.7606 15.5
      vertex -56.1238 84.0729 1
      vertex -57.3402 83.7606 1
    endloop
  endfacet
  facet normal -0.6845 0.729013 0
    outer loop
      vertex -60.6242 81.9551 1
      vertex -61.5397 81.0955 15.5
      vertex -60.6242 81.9551 15.5
    endloop
  endfacet
  facet normal -0.6845 0.729013 0
    outer loop
      vertex -61.5397 81.0955 15.5
      vertex -60.6242 81.9551 1
      vertex -61.5397 81.0955 1
    endloop
  endfacet
  facet normal -0.58784 0.808977 0
    outer loop
      vertex -59.6083 82.6933 1
      vertex -60.6242 81.9551 15.5
      vertex -59.6083 82.6933 15.5
    endloop
  endfacet
  facet normal -0.58784 0.808977 0
    outer loop
      vertex -60.6242 81.9551 15.5
      vertex -59.6083 82.6933 1
      vertex -60.6242 81.9551 1
    endloop
  endfacet
  facet normal -0.770501 0.637439 0
    outer loop
      vertex -62.3402 80.1279 1
      vertex -61.5397 81.0955 15.5
      vertex -61.5397 81.0955 1
    endloop
  endfacet
  facet normal -0.770501 0.637439 0
    outer loop
      vertex -61.5397 81.0955 15.5
      vertex -62.3402 80.1279 1
      vertex -62.3402 80.1279 15.5
    endloop
  endfacet
  facet normal 0 0 -1
    outer loop
      vertex -64.25 63.1875 1
      vertex -63.75 73.75 1
      vertex -63.75 63.1875 1
    endloop
  endfacet
  facet normal 0 -0 -1
    outer loop
      vertex -64.1711 75.5033 1
      vertex -63.75 73.75 1
      vertex -64.25 74.25 1
    endloop
  endfacet
  facet normal -0 0 -1
    outer loop
      vertex -63.75 73.75 1
      vertex -64.25 63.1875 1
      vertex -64.25 74.25 1
    endloop
  endfacet
  facet normal 0 0 -1
    outer loop
      vertex -63.75 73.75 1
      vertex -64.1711 75.5033 1
      vertex -63.9358 76.7369 1
    endloop
  endfacet
  facet normal 0 0 -1
    outer loop
      vertex -45.8929 83.7303 1
      vertex -49.25 84.2303 1
      vertex -45.8929 84.25 1
    endloop
  endfacet
  facet normal 0 0 -1
    outer loop
      vertex -54.3779 83.7303 1
      vertex -49.25 84.2303 1
      vertex -45.8929 83.7303 1
    endloop
  endfacet
  facet normal 0 0 -1
    outer loop
      vertex -54.3779 83.7303 1
      vertex -54.8779 84.2303 1
      vertex -49.25 84.2303 1
    endloop
  endfacet
  facet normal 0 0 -1
    outer loop
      vertex -55.6238 83.5729 1
      vertex -54.8779 84.2303 1
      vertex -54.3779 83.7303 1
    endloop
  endfacet
  facet normal 0 0 -1
    outer loop
      vertex -55.6238 83.5729 1
      vertex -56.1238 84.0729 1
      vertex -54.8779 84.2303 1
    endloop
  endfacet
  facet normal 0 0 -1
    outer loop
      vertex -56.8402 83.2606 1
      vertex -56.1238 84.0729 1
      vertex -55.6238 83.5729 1
    endloop
  endfacet
  facet normal 0 0 -1
    outer loop
      vertex -56.8402 83.2606 1
      vertex -57.3402 83.7606 1
      vertex -56.1238 84.0729 1
    endloop
  endfacet
  facet normal 0 0 -1
    outer loop
      vertex -58.0078 82.7983 1
      vertex -57.3402 83.7606 1
      vertex -56.8402 83.2606 1
    endloop
  endfacet
  facet normal 0 0 -1
    outer loop
      vertex -58.0078 82.7983 1
      vertex -58.5078 83.2983 1
      vertex -57.3402 83.7606 1
    endloop
  endfacet
  facet normal 0 0 -1
    outer loop
      vertex -59.1083 82.1933 1
      vertex -58.5078 83.2983 1
      vertex -58.0078 82.7983 1
    endloop
  endfacet
  facet normal 0 0 -1
    outer loop
      vertex -59.1083 82.1933 1
      vertex -59.6083 82.6933 1
      vertex -58.5078 83.2983 1
    endloop
  endfacet
  facet normal 0 0 -1
    outer loop
      vertex -60.1242 81.4551 1
      vertex -59.6083 82.6933 1
      vertex -59.1083 82.1933 1
    endloop
  endfacet
  facet normal 0 0 -1
    outer loop
      vertex -60.1242 81.4551 1
      vertex -60.6242 81.9551 1
      vertex -59.6083 82.6933 1
    endloop
  endfacet
  facet normal 0 0 -1
    outer loop
      vertex -61.0397 80.5955 1
      vertex -60.6242 81.9551 1
      vertex -60.1242 81.4551 1
    endloop
  endfacet
  facet normal 0 0 -1
    outer loop
      vertex -61.0397 80.5955 1
      vertex -61.5397 81.0955 1
      vertex -60.6242 81.9551 1
    endloop
  endfacet
  facet normal 0 0 -1
    outer loop
      vertex -62.3402 80.1279 1
      vertex -61.0397 80.5955 1
      vertex -61.8402 79.6279 1
    endloop
  endfacet
  facet normal -0 0 -1
    outer loop
      vertex -61.0397 80.5955 1
      vertex -62.3402 80.1279 1
      vertex -61.5397 81.0955 1
    endloop
  endfacet
  facet normal 0 0 -1
    outer loop
      vertex -63.0131 79.0675 1
      vertex -61.8402 79.6279 1
      vertex -62.5131 78.5675 1
    endloop
  endfacet
  facet normal -0 0 -1
    outer loop
      vertex -61.8402 79.6279 1
      vertex -63.0131 79.0675 1
      vertex -62.3402 80.1279 1
    endloop
  endfacet
  facet normal 0 0 -1
    outer loop
      vertex -63.5478 77.9312 1
      vertex -62.5131 78.5675 1
      vertex -63.0478 77.4312 1
    endloop
  endfacet
  facet normal 0 0 -1
    outer loop
      vertex -63.9358 76.7369 1
      vertex -63.0478 77.4312 1
      vertex -63.4358 76.2369 1
    endloop
  endfacet
  facet normal -0 0 -1
    outer loop
      vertex -62.5131 78.5675 1
      vertex -63.5478 77.9312 1
      vertex -63.0131 79.0675 1
    endloop
  endfacet
  facet normal 0 0 -1
    outer loop
      vertex -63.9358 76.7369 1
      vertex -63.4358 76.2369 1
      vertex -63.6711 75.0033 1
    endloop
  endfacet
  facet normal 0 0 -1
    outer loop
      vertex -63.9358 76.7369 1
      vertex -63.6711 75.0033 1
      vertex -63.75 73.75 1
    endloop
  endfacet
  facet normal -0 0 -1
    outer loop
      vertex -63.0478 77.4312 1
      vertex -63.9358 76.7369 1
      vertex -63.5478 77.9312 1
    endloop
  endfacet
  facet normal -0 0 -1
    outer loop
      vertex -45.8929 84.25 1
      vertex -49.25 84.2303 1
      vertex -49.25 84.25 1
    endloop
  endfacet
  facet normal -0.904828 0.425778 0
    outer loop
      vertex -63.5478 77.9312 1
      vertex -63.0131 79.0675 15.5
      vertex -63.0131 79.0675 1
    endloop
  endfacet
  facet normal -0.904828 0.425778 0
    outer loop
      vertex -63.0131 79.0675 15.5
      vertex -63.5478 77.9312 1
      vertex -63.5478 77.9312 15.5
    endloop
  endfacet
  facet normal -0.98229 0.187365 0
    outer loop
      vertex -64.1711 75.5033 1
      vertex -63.9358 76.7369 15.5
      vertex -63.9358 76.7369 1
    endloop
  endfacet
  facet normal -0.98229 0.187365 0
    outer loop
      vertex -63.9358 76.7369 15.5
      vertex -64.1711 75.5033 1
      vertex -64.1711 75.5033 15.5
    endloop
  endfacet
  facet normal -0.951069 0.30898 0
    outer loop
      vertex -63.9358 76.7369 1
      vertex -63.5478 77.9312 15.5
      vertex -63.5478 77.9312 1
    endloop
  endfacet
  facet normal -0.951069 0.30898 0
    outer loop
      vertex -63.5478 77.9312 15.5
      vertex -63.9358 76.7369 1
      vertex -63.9358 76.7369 15.5
    endloop
  endfacet
  facet normal -0.844346 0.535798 0
    outer loop
      vertex -63.0131 79.0675 1
      vertex -62.3402 80.1279 15.5
      vertex -62.3402 80.1279 1
    endloop
  endfacet
  facet normal -0.844346 0.535798 0
    outer loop
      vertex -62.3402 80.1279 15.5
      vertex -63.0131 79.0675 1
      vertex -63.0131 79.0675 15.5
    endloop
  endfacet
  facet normal 0 1 0
    outer loop
      vertex -49.25 82.7342 16.5
      vertex -45.8929 82.7342 18.5
      vertex -45.8929 82.7342 16.5
    endloop
  endfacet
  facet normal 0 1 0
    outer loop
      vertex -45.8929 82.7342 18.5
      vertex -49.25 82.7342 16.5
      vertex -55.2523 82.7342 18.5
    endloop
  endfacet
  facet normal 0 1 0
    outer loop
      vertex -55.2523 82.7342 15.5
      vertex -49.25 82.7342 16.5
      vertex -49.25 82.7342 15.5
    endloop
  endfacet
  facet normal 0 1 0
    outer loop
      vertex -49.25 82.7342 16.5
      vertex -55.2523 82.7342 15.5
      vertex -55.2523 82.7342 18.5
    endloop
  endfacet
  facet normal -0.844304 0.535864 0
    outer loop
      vertex -61.7605 78.604 15.5
      vertex -61.2221 79.4523 18.5
      vertex -61.2221 79.4523 15.5
    endloop
  endfacet
  facet normal -0.844304 0.535864 0
    outer loop
      vertex -61.2221 79.4523 18.5
      vertex -61.7605 78.604 15.5
      vertex -61.7605 78.604 18.5
    endloop
  endfacet
  facet normal -0.368179 0.929755 0
    outer loop
      vertex -57.2221 82.3585 15.5
      vertex -58.1562 81.9886 18.5
      vertex -57.2221 82.3585 18.5
    endloop
  endfacet
  facet normal -0.368179 0.929755 0
    outer loop
      vertex -58.1562 81.9886 18.5
      vertex -57.2221 82.3585 15.5
      vertex -58.1562 81.9886 15.5
    endloop
  endfacet
  facet normal -0.587763 0.809033 0
    outer loop
      vertex -59.0366 81.5046 15.5
      vertex -59.8494 80.9141 18.5
      vertex -59.0366 81.5046 18.5
    endloop
  endfacet
  facet normal -0.587763 0.809033 0
    outer loop
      vertex -59.8494 80.9141 18.5
      vertex -59.0366 81.5046 15.5
      vertex -59.8494 80.9141 15.5
    endloop
  endfacet
  facet normal -1 0 0
    outer loop
      vertex -62.75 69.25 16.5
      vertex -62.75 74.75 15.5
      vertex -62.75 69.25 15.5
    endloop
  endfacet
  facet normal -1 0 0
    outer loop
      vertex -62.75 74.75 15.5
      vertex -62.75 69.25 16.5
      vertex -62.75 74.75 18.5
    endloop
  endfacet
  facet normal -1 0 0
    outer loop
      vertex -62.75 63.1875 18.5
      vertex -62.75 69.25 16.5
      vertex -62.75 63.1875 16.5
    endloop
  endfacet
  facet normal -1 0 0
    outer loop
      vertex -62.75 69.25 16.5
      vertex -62.75 63.1875 18.5
      vertex -62.75 74.75 18.5
    endloop
  endfacet
  facet normal -0.998026 0.0628058 0
    outer loop
      vertex -62.75 74.75 15.5
      vertex -62.6869 75.7527 18.5
      vertex -62.6869 75.7527 15.5
    endloop
  endfacet
  facet normal -0.998026 0.0628058 0
    outer loop
      vertex -62.6869 75.7527 18.5
      vertex -62.75 74.75 15.5
      vertex -62.75 74.75 18.5
    endloop
  endfacet
  facet normal -0 0 1
    outer loop
      vertex -55.2523 82.7342 18.5
      vertex -45.8929 75.4891 18.5
      vertex -45.8929 82.7342 18.5
    endloop
  endfacet
  facet normal 0 0 1
    outer loop
      vertex -55.2523 82.7342 18.5
      vertex -55.3453 75.4891 18.5
      vertex -45.8929 75.4891 18.5
    endloop
  endfacet
  facet normal -0 0 1
    outer loop
      vertex -56.2491 82.6083 18.5
      vertex -55.3453 75.4891 18.5
      vertex -55.2523 82.7342 18.5
    endloop
  endfacet
  facet normal -0 0 1
    outer loop
      vertex -57.2221 82.3585 18.5
      vertex -55.3453 75.4891 18.5
      vertex -56.2491 82.6083 18.5
    endloop
  endfacet
  facet normal 0 0 1
    outer loop
      vertex -55.3453 75.4891 18.5
      vertex -57.2221 82.3585 18.5
      vertex -56.0306 75.4026 18.5
    endloop
  endfacet
  facet normal -0 0 1
    outer loop
      vertex -58.1562 81.9886 18.5
      vertex -56.0306 75.4026 18.5
      vertex -57.2221 82.3585 18.5
    endloop
  endfacet
  facet normal -0 0 1
    outer loop
      vertex -59.0366 81.5046 18.5
      vertex -56.0306 75.4026 18.5
      vertex -58.1562 81.9886 18.5
    endloop
  endfacet
  facet normal 0 0 1
    outer loop
      vertex -56.0306 75.4026 18.5
      vertex -59.0366 81.5046 18.5
      vertex -56.6996 75.2308 18.5
    endloop
  endfacet
  facet normal -0 0 1
    outer loop
      vertex -59.8494 80.9141 18.5
      vertex -56.6996 75.2308 18.5
      vertex -59.0366 81.5046 18.5
    endloop
  endfacet
  facet normal -0 0 1
    outer loop
      vertex -60.5817 80.2264 18.5
      vertex -56.6996 75.2308 18.5
      vertex -59.8494 80.9141 18.5
    endloop
  endfacet
  facet normal 0 0 1
    outer loop
      vertex -56.6996 75.2308 18.5
      vertex -60.5817 80.2264 18.5
      vertex -57.3418 74.9765 18.5
    endloop
  endfacet
  facet normal -0 0 1
    outer loop
      vertex -61.2221 79.4523 18.5
      vertex -57.3418 74.9765 18.5
      vertex -60.5817 80.2264 18.5
    endloop
  endfacet
  facet normal -0 0 1
    outer loop
      vertex -61.7605 78.604 18.5
      vertex -57.3418 74.9765 18.5
      vertex -61.2221 79.4523 18.5
    endloop
  endfacet
  facet normal 0 0 1
    outer loop
      vertex -57.3418 74.9765 18.5
      vertex -61.7605 78.604 18.5
      vertex -57.947 74.6438 18.5
    endloop
  endfacet
  facet normal -0 0 1
    outer loop
      vertex -62.1882 77.695 18.5
      vertex -57.947 74.6438 18.5
      vertex -61.7605 78.604 18.5
    endloop
  endfacet
  facet normal 0 0 1
    outer loop
      vertex -57.947 74.6438 18.5
      vertex -62.1882 77.695 18.5
      vertex -58.5058 74.2378 18.5
    endloop
  endfacet
  facet normal -0 0 1
    outer loop
      vertex -62.4987 76.7395 18.5
      vertex -58.5058 74.2378 18.5
      vertex -62.1882 77.695 18.5
    endloop
  endfacet
  facet normal -0 0 1
    outer loop
      vertex -62.6869 75.7527 18.5
      vertex -58.5058 74.2378 18.5
      vertex -62.4987 76.7395 18.5
    endloop
  endfacet
  facet normal 0 0 1
    outer loop
      vertex -58.5058 74.2378 18.5
      vertex -62.6869 75.7527 18.5
      vertex -59.0093 73.765 18.5
    endloop
  endfacet
  facet normal -0 0 1
    outer loop
      vertex -62.75 74.75 18.5
      vertex -59.0093 73.765 18.5
      vertex -62.6869 75.7527 18.5
    endloop
  endfacet
  facet normal 0 0 1
    outer loop
      vertex -59.0093 73.765 18.5
      vertex -62.75 74.75 18.5
      vertex -59.4496 73.2328 18.5
    endloop
  endfacet
  facet normal 0 0 1
    outer loop
      vertex -59.4496 73.2328 18.5
      vertex -62.75 74.75 18.5
      vertex -59.8197 72.6496 18.5
    endloop
  endfacet
  facet normal 0 0 1
    outer loop
      vertex -59.8197 72.6496 18.5
      vertex -62.75 74.75 18.5
      vertex -60.1138 72.0247 18.5
    endloop
  endfacet
  facet normal 0 0 1
    outer loop
      vertex -60.1138 72.0247 18.5
      vertex -62.75 74.75 18.5
      vertex -60.3272 71.3678 18.5
    endloop
  endfacet
  facet normal 0 0 1
    outer loop
      vertex -60.3272 71.3678 18.5
      vertex -62.75 74.75 18.5
      vertex -60.4566 70.6893 18.5
    endloop
  endfacet
  facet normal 0 0 1
    outer loop
      vertex -60.4566 70.6893 18.5
      vertex -62.75 74.75 18.5
      vertex -60.5 70 18.5
    endloop
  endfacet
  facet normal 0 0 1
    outer loop
      vertex -62.75 63.1875 18.5
      vertex -60.5 70 18.5
      vertex -62.75 74.75 18.5
    endloop
  endfacet
  facet normal 0 0 1
    outer loop
      vertex -60.5 70 18.5
      vertex -62.75 63.1875 18.5
      vertex -60.5 63.1875 18.5
    endloop
  endfacet
  facet normal -0.982295 0.187341 0
    outer loop
      vertex -62.6869 75.7527 15.5
      vertex -62.4987 76.7395 18.5
      vertex -62.4987 76.7395 15.5
    endloop
  endfacet
  facet normal -0.982295 0.187341 0
    outer loop
      vertex -62.4987 76.7395 18.5
      vertex -62.6869 75.7527 15.5
      vertex -62.6869 75.7527 18.5
    endloop
  endfacet
  facet normal -0.951045 0.309052 0
    outer loop
      vertex -62.4987 76.7395 15.5
      vertex -62.1882 77.695 18.5
      vertex -62.1882 77.695 15.5
    endloop
  endfacet
  facet normal -0.951045 0.309052 0
    outer loop
      vertex -62.1882 77.695 18.5
      vertex -62.4987 76.7395 15.5
      vertex -62.4987 76.7395 18.5
    endloop
  endfacet
  facet normal -0.68456 0.728956 0
    outer loop
      vertex -59.8494 80.9141 15.5
      vertex -60.5817 80.2264 18.5
      vertex -59.8494 80.9141 18.5
    endloop
  endfacet
  facet normal -0.68456 0.728956 0
    outer loop
      vertex -60.5817 80.2264 18.5
      vertex -59.8494 80.9141 15.5
      vertex -60.5817 80.2264 15.5
    endloop
  endfacet
  facet normal -0.770509 0.637429 0
    outer loop
      vertex -61.2221 79.4523 15.5
      vertex -60.5817 80.2264 18.5
      vertex -60.5817 80.2264 15.5
    endloop
  endfacet
  facet normal -0.770509 0.637429 0
    outer loop
      vertex -60.5817 80.2264 18.5
      vertex -61.2221 79.4523 15.5
      vertex -61.2221 79.4523 18.5
    endloop
  endfacet
  facet normal -0.248668 0.968589 0
    outer loop
      vertex -56.2491 82.6083 15.5
      vertex -57.2221 82.3585 18.5
      vertex -56.2491 82.6083 18.5
    endloop
  endfacet
  facet normal -0.248668 0.968589 0
    outer loop
      vertex -57.2221 82.3585 18.5
      vertex -56.2491 82.6083 15.5
      vertex -57.2221 82.3585 15.5
    endloop
  endfacet
  facet normal -0.125309 0.992118 0
    outer loop
      vertex -55.2523 82.7342 15.5
      vertex -56.2491 82.6083 18.5
      vertex -55.2523 82.7342 18.5
    endloop
  endfacet
  facet normal -0.125309 0.992118 0
    outer loop
      vertex -56.2491 82.6083 18.5
      vertex -55.2523 82.7342 15.5
      vertex -56.2491 82.6083 15.5
    endloop
  endfacet
  facet normal -0.904844 0.425744 0
    outer loop
      vertex -62.1882 77.695 15.5
      vertex -61.7605 78.604 18.5
      vertex -61.7605 78.604 15.5
    endloop
  endfacet
  facet normal -0.904844 0.425744 0
    outer loop
      vertex -61.7605 78.604 18.5
      vertex -62.1882 77.695 15.5
      vertex -62.1882 77.695 18.5
    endloop
  endfacet
  facet normal -0.481751 0.876308 0
    outer loop
      vertex -58.1562 81.9886 15.5
      vertex -59.0366 81.5046 18.5
      vertex -58.1562 81.9886 18.5
    endloop
  endfacet
  facet normal -0.481751 0.876308 0
    outer loop
      vertex -59.0366 81.5046 18.5
      vertex -58.1562 81.9886 15.5
      vertex -59.0366 81.5046 15.5
    endloop
  endfacet
  facet normal -1 0 0
    outer loop
      vertex -49.25 84.2303 15.5
      vertex -49.25 84.25 1
      vertex -49.25 84.2303 1
    endloop
  endfacet
  facet normal -1 0 0
    outer loop
      vertex -49.25 84.25 1
      vertex -49.25 84.2303 15.5
      vertex -49.25 84.25 16.5
    endloop
  endfacet
  facet normal -1 0 0
    outer loop
      vertex -49.25 82.7342 16.5
      vertex -49.25 84.2303 15.5
      vertex -49.25 82.7342 15.5
    endloop
  endfacet
  facet normal -1 0 0
    outer loop
      vertex -49.25 84.2303 15.5
      vertex -49.25 82.7342 16.5
      vertex -49.25 84.25 16.5
    endloop
  endfacet
  facet normal -0 0 1
    outer loop
      vertex -49.25 84.25 16.5
      vertex -45.8929 82.7342 16.5
      vertex -45.8929 84.25 16.5
    endloop
  endfacet
  facet normal 0 0 1
    outer loop
      vertex -45.8929 82.7342 16.5
      vertex -49.25 84.25 16.5
      vertex -49.25 82.7342 16.5
    endloop
  endfacet
  facet normal -0 0 1
    outer loop
      vertex -64.25 69.25 16.5
      vertex -62.75 63.1875 16.5
      vertex -62.75 69.25 16.5
    endloop
  endfacet
  facet normal 0 0 1
    outer loop
      vertex -62.75 63.1875 16.5
      vertex -64.25 69.25 16.5
      vertex -64.25 63.1875 16.5
    endloop
  endfacet
  facet normal 0 1 -0
    outer loop
      vertex -45.8929 84.25 1
      vertex -49.25 84.25 16.5
      vertex -45.8929 84.25 16.5
    endloop
  endfacet
  facet normal 0 1 0
    outer loop
      vertex -49.25 84.25 16.5
      vertex -45.8929 84.25 1
      vertex -49.25 84.25 1
    endloop
  endfacet
  facet normal 0 1 -0
    outer loop
      vertex -62.75 69.25 15.5
      vertex -64.25 69.25 16.5
      vertex -62.75 69.25 16.5
    endloop
  endfacet
  facet normal 0 1 0
    outer loop
      vertex -64.25 69.25 16.5
      vertex -62.75 69.25 15.5
      vertex -64.25 69.25 15.5
    endloop
  endfacet
  facet normal 0 -1 0
    outer loop
      vertex -55.3453 75.4891 0
      vertex -45.8929 75.4891 18.5
      vertex -55.3453 75.4891 18.5
    endloop
  endfacet
  facet normal 0 -1 -0
    outer loop
      vertex -45.8929 75.4891 18.5
      vertex -55.3453 75.4891 0
      vertex -45.8929 75.4891 0
    endloop
  endfacet
  facet normal 0.125228 -0.992128 0
    outer loop
      vertex -56.0306 75.4026 0
      vertex -55.3453 75.4891 18.5
      vertex -56.0306 75.4026 18.5
    endloop
  endfacet
  facet normal 0.125228 -0.992128 0
    outer loop
      vertex -55.3453 75.4891 18.5
      vertex -56.0306 75.4026 0
      vertex -55.3453 75.4891 0
    endloop
  endfacet
  facet normal 0.368168 -0.929759 0
    outer loop
      vertex -57.3418 74.9765 0
      vertex -56.6996 75.2308 18.5
      vertex -57.3418 74.9765 18.5
    endloop
  endfacet
  facet normal 0.368168 -0.929759 0
    outer loop
      vertex -56.6996 75.2308 18.5
      vertex -57.3418 74.9765 0
      vertex -56.6996 75.2308 0
    endloop
  endfacet
  facet normal 1 -0 0
    outer loop
      vertex -60.5 63.1875 18.5
      vertex -60.5 70 0
      vertex -60.5 70 18.5
    endloop
  endfacet
  facet normal 1 0 0
    outer loop
      vertex -60.5 70 0
      vertex -60.5 63.1875 18.5
      vertex -60.5 63.1875 0
    endloop
  endfacet
  facet normal 0.998024 -0.062838 0
    outer loop
      vertex -60.5 70 18.5
      vertex -60.4566 70.6893 0
      vertex -60.4566 70.6893 18.5
    endloop
  endfacet
  facet normal 0.998024 -0.062838 0
    outer loop
      vertex -60.4566 70.6893 0
      vertex -60.5 70 18.5
      vertex -60.5 70 0
    endloop
  endfacet
  facet normal 0.982295 -0.187338 0
    outer loop
      vertex -60.4566 70.6893 18.5
      vertex -60.3272 71.3678 0
      vertex -60.3272 71.3678 18.5
    endloop
  endfacet
  facet normal 0.982295 -0.187338 0
    outer loop
      vertex -60.3272 71.3678 0
      vertex -60.4566 70.6893 18.5
      vertex -60.4566 70.6893 0
    endloop
  endfacet
  facet normal 0.248731 -0.968573 0
    outer loop
      vertex -56.6996 75.2308 0
      vertex -56.0306 75.4026 18.5
      vertex -56.6996 75.2308 18.5
    endloop
  endfacet
  facet normal 0.248731 -0.968573 0
    outer loop
      vertex -56.0306 75.4026 18.5
      vertex -56.6996 75.2308 0
      vertex -56.0306 75.4026 0
    endloop
  endfacet
  facet normal 0.587793 -0.809011 0
    outer loop
      vertex -58.5058 74.2378 0
      vertex -57.947 74.6438 18.5
      vertex -58.5058 74.2378 18.5
    endloop
  endfacet
  facet normal 0.587793 -0.809011 0
    outer loop
      vertex -57.947 74.6438 18.5
      vertex -58.5058 74.2378 0
      vertex -57.947 74.6438 0
    endloop
  endfacet
  facet normal 0.770495 -0.637446 0
    outer loop
      vertex -59.4496 73.2328 18.5
      vertex -59.0093 73.765 0
      vertex -59.0093 73.765 18.5
    endloop
  endfacet
  facet normal 0.770495 -0.637446 0
    outer loop
      vertex -59.0093 73.765 0
      vertex -59.4496 73.2328 18.5
      vertex -59.4496 73.2328 0
    endloop
  endfacet
  facet normal 0.684533 -0.728982 0
    outer loop
      vertex -59.0093 73.765 0
      vertex -58.5058 74.2378 18.5
      vertex -59.0093 73.765 18.5
    endloop
  endfacet
  facet normal 0.684533 -0.728982 0
    outer loop
      vertex -58.5058 74.2378 18.5
      vertex -59.0093 73.765 0
      vertex -58.5058 74.2378 0
    endloop
  endfacet
  facet normal 0.481741 -0.876314 0
    outer loop
      vertex -57.947 74.6438 0
      vertex -57.3418 74.9765 18.5
      vertex -57.947 74.6438 18.5
    endloop
  endfacet
  facet normal 0.481741 -0.876314 0
    outer loop
      vertex -57.3418 74.9765 18.5
      vertex -57.947 74.6438 0
      vertex -57.3418 74.9765 0
    endloop
  endfacet
  facet normal 0.951073 -0.308965 0
    outer loop
      vertex -60.3272 71.3678 18.5
      vertex -60.1138 72.0247 0
      vertex -60.1138 72.0247 18.5
    endloop
  endfacet
  facet normal 0.951073 -0.308965 0
    outer loop
      vertex -60.1138 72.0247 0
      vertex -60.3272 71.3678 18.5
      vertex -60.3272 71.3678 0
    endloop
  endfacet
  facet normal 0.904802 -0.425832 0
    outer loop
      vertex -60.1138 72.0247 18.5
      vertex -59.8197 72.6496 0
      vertex -59.8197 72.6496 18.5
    endloop
  endfacet
  facet normal 0.904802 -0.425832 0
    outer loop
      vertex -59.8197 72.6496 0
      vertex -60.1138 72.0247 18.5
      vertex -60.1138 72.0247 0
    endloop
  endfacet
  facet normal 0.844334 -0.535817 0
    outer loop
      vertex -59.8197 72.6496 18.5
      vertex -59.4496 73.2328 0
      vertex -59.4496 73.2328 18.5
    endloop
  endfacet
  facet normal 0.844334 -0.535817 0
    outer loop
      vertex -59.4496 73.2328 0
      vertex -59.8197 72.6496 18.5
      vertex -59.8197 72.6496 0
    endloop
  endfacet
  facet normal 1 0 0
    outer loop
      vertex -45.8929 82.7342 18.5
      vertex -45.8929 75.4891 18.5
      vertex -45.8929 82.7342 16.5
    endloop
  endfacet
  facet normal 1 0 0
    outer loop
      vertex -45.8929 84.25 16.5
      vertex -45.8929 83.7303 1
      vertex -45.8929 84.25 1
    endloop
  endfacet
  facet normal 1 -0 0
    outer loop
      vertex -45.8929 82.7342 16.5
      vertex -45.8929 83.7303 1
      vertex -45.8929 84.25 16.5
    endloop
  endfacet
  facet normal 1 0 0
    outer loop
      vertex -45.8929 75.4891 0
      vertex -45.8929 83.7303 1
      vertex -45.8929 82.7342 16.5
    endloop
  endfacet
  facet normal 1 0 0
    outer loop
      vertex -45.8929 75.4891 0
      vertex -45.8929 82.7342 16.5
      vertex -45.8929 75.4891 18.5
    endloop
  endfacet
  facet normal 1 0 0
    outer loop
      vertex -45.8929 83.7303 1
      vertex -45.8929 75.4891 0
      vertex -45.8929 83.7303 0
    endloop
  endfacet
  facet normal 0 -1 0
    outer loop
      vertex -63.75 63.1875 1
      vertex -64.25 63.1875 16.5
      vertex -64.25 63.1875 1
    endloop
  endfacet
  facet normal 0 -1 0
    outer loop
      vertex -62.75 63.1875 16.5
      vertex -60.5 63.1875 18.5
      vertex -62.75 63.1875 18.5
    endloop
  endfacet
  facet normal 0 -1 0
    outer loop
      vertex -64.25 63.1875 16.5
      vertex -63.75 63.1875 1
      vertex -62.75 63.1875 16.5
    endloop
  endfacet
  facet normal 0 -1 0
    outer loop
      vertex -60.5 63.1875 0
      vertex -62.75 63.1875 16.5
      vertex -63.75 63.1875 1
    endloop
  endfacet
  facet normal 0 -1 0
    outer loop
      vertex -60.5 63.1875 0
      vertex -63.75 63.1875 1
      vertex -63.75 63.1875 0
    endloop
  endfacet
  facet normal 0 -1 0
    outer loop
      vertex -62.75 63.1875 16.5
      vertex -60.5 63.1875 0
      vertex -60.5 63.1875 18.5
    endloop
  endfacet
endsolid OpenSCAD_Model
