solid OpenSCAD_Model
  facet normal 0 -1 0
    outer loop
      vertex -62.8453 90.4891 0
      vertex -54.25 90.4891 18.5
      vertex -62.8453 90.4891 18.5
    endloop
  endfacet
  facet normal 0 -1 -0
    outer loop
      vertex -54.25 90.4891 18.5
      vertex -62.8453 90.4891 0
      vertex -54.25 90.4891 0
    endloop
  endfacet
  facet normal 0.998024 -0.062838 0
    outer loop
      vertex -68 85 18.5
      vertex -67.9566 85.6893 0
      vertex -67.9566 85.6893 18.5
    endloop
  endfacet
  facet normal 0.998024 -0.062838 0
    outer loop
      vertex -67.9566 85.6893 0
      vertex -68 85 18.5
      vertex -68 85 0
    endloop
  endfacet
  facet normal 0.684533 -0.728982 0
    outer loop
      vertex -66.5093 88.765 0
      vertex -66.0058 89.2378 18.5
      vertex -66.5093 88.765 18.5
    endloop
  endfacet
  facet normal 0.684533 -0.728982 0
    outer loop
      vertex -66.0058 89.2378 18.5
      vertex -66.5093 88.765 0
      vertex -66.0058 89.2378 0
    endloop
  endfacet
  facet normal 0.125228 -0.992128 0
    outer loop
      vertex -63.5306 90.4026 0
      vertex -62.8453 90.4891 18.5
      vertex -63.5306 90.4026 18.5
    endloop
  endfacet
  facet normal 0.125228 -0.992128 0
    outer loop
      vertex -62.8453 90.4891 18.5
      vertex -63.5306 90.4026 0
      vertex -62.8453 90.4891 0
    endloop
  endfacet
  facet normal 1 -0 0
    outer loop
      vertex -68 84.25 18.5
      vertex -68 85 0
      vertex -68 85 18.5
    endloop
  endfacet
  facet normal 1 0 0
    outer loop
      vertex -68 85 0
      vertex -68 84.25 18.5
      vertex -68 84.25 0
    endloop
  endfacet
  facet normal 0.368168 -0.929759 0
    outer loop
      vertex -64.8418 89.9765 0
      vertex -64.1996 90.2308 18.5
      vertex -64.8418 89.9765 18.5
    endloop
  endfacet
  facet normal 0.368168 -0.929759 0
    outer loop
      vertex -64.1996 90.2308 18.5
      vertex -64.8418 89.9765 0
      vertex -64.1996 90.2308 0
    endloop
  endfacet
  facet normal 0 0 -1
    outer loop
      vertex -79.25 84.25 0
      vertex -68 85 0
      vertex -68 84.25 0
    endloop
  endfacet
  facet normal 0 0 -1
    outer loop
      vertex -68 85 0
      vertex -79.25 99 0
      vertex -69.6436 109.23 0
    endloop
  endfacet
  facet normal 0 0 -1
    outer loop
      vertex -69.6436 109.23 0
      vertex -79.25 99 0
      vertex -70.9207 109.068 0
    endloop
  endfacet
  facet normal 0 0 -1
    outer loop
      vertex -70.9207 109.068 0
      vertex -79.25 99 0
      vertex -72.1674 108.748 0
    endloop
  endfacet
  facet normal 0 0 -1
    outer loop
      vertex -72.1674 108.748 0
      vertex -79.25 99 0
      vertex -73.3642 108.274 0
    endloop
  endfacet
  facet normal 0 0 -1
    outer loop
      vertex -73.3642 108.274 0
      vertex -79.25 99 0
      vertex -74.4922 107.654 0
    endloop
  endfacet
  facet normal 0 0 -1
    outer loop
      vertex -74.4922 107.654 0
      vertex -79.25 99 0
      vertex -75.5336 106.898 0
    endloop
  endfacet
  facet normal 0 0 -1
    outer loop
      vertex -75.5336 106.898 0
      vertex -79.25 99 0
      vertex -76.4719 106.017 0
    endloop
  endfacet
  facet normal 0 0 -1
    outer loop
      vertex -76.4719 106.017 0
      vertex -79.25 99 0
      vertex -77.2924 105.025 0
    endloop
  endfacet
  facet normal 0 0 -1
    outer loop
      vertex -77.2924 105.025 0
      vertex -79.25 99 0
      vertex -77.9821 103.938 0
    endloop
  endfacet
  facet normal 0 0 -1
    outer loop
      vertex -77.9821 103.938 0
      vertex -79.25 99 0
      vertex -78.5302 102.773 0
    endloop
  endfacet
  facet normal 0 0 -1
    outer loop
      vertex -78.5302 102.773 0
      vertex -79.25 99 0
      vertex -78.928 101.549 0
    endloop
  endfacet
  facet normal -0 0 -1
    outer loop
      vertex -68 85 0
      vertex -79.25 84.25 0
      vertex -79.25 99 0
    endloop
  endfacet
  facet normal 0 0 -1
    outer loop
      vertex -78.928 101.549 0
      vertex -79.25 99 0
      vertex -79.1692 100.285 0
    endloop
  endfacet
  facet normal 0 0 -1
    outer loop
      vertex -62.8453 90.4891 0
      vertex -54.25 109.23 0
      vertex -54.25 90.4891 0
    endloop
  endfacet
  facet normal 0 0 -1
    outer loop
      vertex -69.6436 109.23 0
      vertex -62.8453 90.4891 0
      vertex -63.5306 90.4026 0
    endloop
  endfacet
  facet normal 0 0 -1
    outer loop
      vertex -69.6436 109.23 0
      vertex -63.5306 90.4026 0
      vertex -64.1996 90.2308 0
    endloop
  endfacet
  facet normal 0 0 -1
    outer loop
      vertex -69.6436 109.23 0
      vertex -64.1996 90.2308 0
      vertex -64.8418 89.9765 0
    endloop
  endfacet
  facet normal 0 0 -1
    outer loop
      vertex -69.6436 109.23 0
      vertex -64.8418 89.9765 0
      vertex -65.447 89.6438 0
    endloop
  endfacet
  facet normal 0 0 -1
    outer loop
      vertex -69.6436 109.23 0
      vertex -65.447 89.6438 0
      vertex -66.0058 89.2378 0
    endloop
  endfacet
  facet normal 0 0 -1
    outer loop
      vertex -69.6436 109.23 0
      vertex -66.0058 89.2378 0
      vertex -66.5093 88.765 0
    endloop
  endfacet
  facet normal 0 0 -1
    outer loop
      vertex -69.6436 109.23 0
      vertex -66.5093 88.765 0
      vertex -66.9496 88.2328 0
    endloop
  endfacet
  facet normal 0 0 -1
    outer loop
      vertex -69.6436 109.23 0
      vertex -66.9496 88.2328 0
      vertex -67.3197 87.6496 0
    endloop
  endfacet
  facet normal 0 0 -1
    outer loop
      vertex -62.8453 90.4891 0
      vertex -69.6436 109.23 0
      vertex -54.25 109.23 0
    endloop
  endfacet
  facet normal 0 0 -1
    outer loop
      vertex -67.6138 87.0247 0
      vertex -69.6436 109.23 0
      vertex -67.3197 87.6496 0
    endloop
  endfacet
  facet normal 0 0 -1
    outer loop
      vertex -67.8272 86.3678 0
      vertex -69.6436 109.23 0
      vertex -67.6138 87.0247 0
    endloop
  endfacet
  facet normal 0 0 -1
    outer loop
      vertex -67.9566 85.6893 0
      vertex -69.6436 109.23 0
      vertex -67.8272 86.3678 0
    endloop
  endfacet
  facet normal 0 0 -1
    outer loop
      vertex -69.6436 109.23 0
      vertex -67.9566 85.6893 0
      vertex -68 85 0
    endloop
  endfacet
  facet normal 0 0 1
    outer loop
      vertex -54.25 109.23 18.5
      vertex -62.8453 90.4891 18.5
      vertex -54.25 90.4891 18.5
    endloop
  endfacet
  facet normal -0 0 1
    outer loop
      vertex -69.6436 109.23 18.5
      vertex -62.8453 90.4891 18.5
      vertex -54.25 109.23 18.5
    endloop
  endfacet
  facet normal 0 0 1
    outer loop
      vertex -62.8453 90.4891 18.5
      vertex -69.6436 109.23 18.5
      vertex -63.5306 90.4026 18.5
    endloop
  endfacet
  facet normal 0 0 1
    outer loop
      vertex -63.5306 90.4026 18.5
      vertex -69.6436 109.23 18.5
      vertex -64.1996 90.2308 18.5
    endloop
  endfacet
  facet normal 0 0 1
    outer loop
      vertex -64.1996 90.2308 18.5
      vertex -69.6436 109.23 18.5
      vertex -64.8418 89.9765 18.5
    endloop
  endfacet
  facet normal -0 0 1
    outer loop
      vertex -70.9207 109.068 18.5
      vertex -64.8418 89.9765 18.5
      vertex -69.6436 109.23 18.5
    endloop
  endfacet
  facet normal -0 0 1
    outer loop
      vertex -72.1674 108.748 18.5
      vertex -64.8418 89.9765 18.5
      vertex -70.9207 109.068 18.5
    endloop
  endfacet
  facet normal 0 0 1
    outer loop
      vertex -65.447 89.6438 18.5
      vertex -79.25 99 18.5
      vertex -66.0058 89.2378 18.5
    endloop
  endfacet
  facet normal 0 0 1
    outer loop
      vertex -66.0058 89.2378 18.5
      vertex -79.25 99 18.5
      vertex -66.5093 88.765 18.5
    endloop
  endfacet
  facet normal 0 0 1
    outer loop
      vertex -66.5093 88.765 18.5
      vertex -79.25 99 18.5
      vertex -66.9496 88.2328 18.5
    endloop
  endfacet
  facet normal 0 0 1
    outer loop
      vertex -66.9496 88.2328 18.5
      vertex -79.25 99 18.5
      vertex -67.3197 87.6496 18.5
    endloop
  endfacet
  facet normal 0 0 1
    outer loop
      vertex -79.25 84.25 18.5
      vertex -67.3197 87.6496 18.5
      vertex -79.25 99 18.5
    endloop
  endfacet
  facet normal 0 0 1
    outer loop
      vertex -67.3197 87.6496 18.5
      vertex -79.25 84.25 18.5
      vertex -67.6138 87.0247 18.5
    endloop
  endfacet
  facet normal 0 0 1
    outer loop
      vertex -67.6138 87.0247 18.5
      vertex -79.25 84.25 18.5
      vertex -67.8272 86.3678 18.5
    endloop
  endfacet
  facet normal 0 0 1
    outer loop
      vertex -67.8272 86.3678 18.5
      vertex -79.25 84.25 18.5
      vertex -67.9566 85.6893 18.5
    endloop
  endfacet
  facet normal 0 0 1
    outer loop
      vertex -64.8418 89.9765 18.5
      vertex -79.25 99 18.5
      vertex -65.447 89.6438 18.5
    endloop
  endfacet
  facet normal -0 0 1
    outer loop
      vertex -73.3642 108.274 18.5
      vertex -64.8418 89.9765 18.5
      vertex -72.1674 108.748 18.5
    endloop
  endfacet
  facet normal 0 0 1
    outer loop
      vertex -64.8418 89.9765 18.5
      vertex -73.3642 108.274 18.5
      vertex -79.25 99 18.5
    endloop
  endfacet
  facet normal 0 0 1
    outer loop
      vertex -79.25 99 18.5
      vertex -73.3642 108.274 18.5
      vertex -74.4922 107.654 18.5
    endloop
  endfacet
  facet normal 0 0 1
    outer loop
      vertex -79.25 99 18.5
      vertex -74.4922 107.654 18.5
      vertex -75.5336 106.898 18.5
    endloop
  endfacet
  facet normal 0 0 1
    outer loop
      vertex -79.25 99 18.5
      vertex -75.5336 106.898 18.5
      vertex -76.4719 106.017 18.5
    endloop
  endfacet
  facet normal 0 0 1
    outer loop
      vertex -79.25 99 18.5
      vertex -76.4719 106.017 18.5
      vertex -77.2924 105.025 18.5
    endloop
  endfacet
  facet normal 0 0 1
    outer loop
      vertex -79.25 99 18.5
      vertex -77.2924 105.025 18.5
      vertex -77.9821 103.938 18.5
    endloop
  endfacet
  facet normal 0 0 1
    outer loop
      vertex -79.25 99 18.5
      vertex -77.9821 103.938 18.5
      vertex -78.5302 102.773 18.5
    endloop
  endfacet
  facet normal 0 0 1
    outer loop
      vertex -79.25 99 18.5
      vertex -78.5302 102.773 18.5
      vertex -78.928 101.549 18.5
    endloop
  endfacet
  facet normal 0 0 1
    outer loop
      vertex -79.25 99 18.5
      vertex -78.928 101.549 18.5
      vertex -79.1692 100.285 18.5
    endloop
  endfacet
  facet normal 0 0 1
    outer loop
      vertex -67.9566 85.6893 18.5
      vertex -79.25 84.25 18.5
      vertex -68 85 18.5
    endloop
  endfacet
  facet normal 0 0 1
    outer loop
      vertex -68 85 18.5
      vertex -79.25 84.25 18.5
      vertex -68 84.25 18.5
    endloop
  endfacet
  facet normal 0.248731 -0.968573 0
    outer loop
      vertex -64.1996 90.2308 0
      vertex -63.5306 90.4026 18.5
      vertex -64.1996 90.2308 18.5
    endloop
  endfacet
  facet normal 0.248731 -0.968573 0
    outer loop
      vertex -63.5306 90.4026 18.5
      vertex -64.1996 90.2308 0
      vertex -63.5306 90.4026 0
    endloop
  endfacet
  facet normal 0.844334 -0.535817 0
    outer loop
      vertex -67.3197 87.6496 18.5
      vertex -66.9496 88.2328 0
      vertex -66.9496 88.2328 18.5
    endloop
  endfacet
  facet normal 0.844334 -0.535817 0
    outer loop
      vertex -66.9496 88.2328 0
      vertex -67.3197 87.6496 18.5
      vertex -67.3197 87.6496 0
    endloop
  endfacet
  facet normal 0.587793 -0.809011 0
    outer loop
      vertex -66.0058 89.2378 0
      vertex -65.447 89.6438 18.5
      vertex -66.0058 89.2378 18.5
    endloop
  endfacet
  facet normal 0.587793 -0.809011 0
    outer loop
      vertex -65.447 89.6438 18.5
      vertex -66.0058 89.2378 0
      vertex -65.447 89.6438 0
    endloop
  endfacet
  facet normal 0.481741 -0.876314 0
    outer loop
      vertex -65.447 89.6438 0
      vertex -64.8418 89.9765 18.5
      vertex -65.447 89.6438 18.5
    endloop
  endfacet
  facet normal 0.481741 -0.876314 0
    outer loop
      vertex -64.8418 89.9765 18.5
      vertex -65.447 89.6438 0
      vertex -64.8418 89.9765 0
    endloop
  endfacet
  facet normal 0.951073 -0.308965 0
    outer loop
      vertex -67.8272 86.3678 18.5
      vertex -67.6138 87.0247 0
      vertex -67.6138 87.0247 18.5
    endloop
  endfacet
  facet normal 0.951073 -0.308965 0
    outer loop
      vertex -67.6138 87.0247 0
      vertex -67.8272 86.3678 18.5
      vertex -67.8272 86.3678 0
    endloop
  endfacet
  facet normal 0.904802 -0.425832 0
    outer loop
      vertex -67.6138 87.0247 18.5
      vertex -67.3197 87.6496 0
      vertex -67.3197 87.6496 18.5
    endloop
  endfacet
  facet normal 0.904802 -0.425832 0
    outer loop
      vertex -67.3197 87.6496 0
      vertex -67.6138 87.0247 18.5
      vertex -67.6138 87.0247 0
    endloop
  endfacet
  facet normal 0.770495 -0.637446 0
    outer loop
      vertex -66.9496 88.2328 18.5
      vertex -66.5093 88.765 0
      vertex -66.5093 88.765 18.5
    endloop
  endfacet
  facet normal 0.770495 -0.637446 0
    outer loop
      vertex -66.5093 88.765 0
      vertex -66.9496 88.2328 18.5
      vertex -66.9496 88.2328 0
    endloop
  endfacet
  facet normal 0.982295 -0.187338 0
    outer loop
      vertex -67.9566 85.6893 18.5
      vertex -67.8272 86.3678 0
      vertex -67.8272 86.3678 18.5
    endloop
  endfacet
  facet normal 0.982295 -0.187338 0
    outer loop
      vertex -67.8272 86.3678 0
      vertex -67.9566 85.6893 18.5
      vertex -67.9566 85.6893 0
    endloop
  endfacet
  facet normal 1 -0 0
    outer loop
      vertex -54.25 90.4891 18.5
      vertex -54.25 109.23 0
      vertex -54.25 109.23 18.5
    endloop
  endfacet
  facet normal 1 0 0
    outer loop
      vertex -54.25 109.23 0
      vertex -54.25 90.4891 18.5
      vertex -54.25 90.4891 0
    endloop
  endfacet
  facet normal -1 0 0
    outer loop
      vertex -79.25 84.25 0
      vertex -79.25 99 18.5
      vertex -79.25 99 0
    endloop
  endfacet
  facet normal -1 -0 0
    outer loop
      vertex -79.25 99 18.5
      vertex -79.25 84.25 0
      vertex -79.25 84.25 18.5
    endloop
  endfacet
  facet normal 0 -1 0
    outer loop
      vertex -79.25 84.25 0
      vertex -68 84.25 18.5
      vertex -79.25 84.25 18.5
    endloop
  endfacet
  facet normal 0 -1 -0
    outer loop
      vertex -68 84.25 18.5
      vertex -79.25 84.25 0
      vertex -68 84.25 0
    endloop
  endfacet
  facet normal 0 1 -0
    outer loop
      vertex -54.25 109.23 0
      vertex -69.6436 109.23 18.5
      vertex -54.25 109.23 18.5
    endloop
  endfacet
  facet normal 0 1 0
    outer loop
      vertex -69.6436 109.23 18.5
      vertex -54.25 109.23 0
      vertex -69.6436 109.23 0
    endloop
  endfacet
  facet normal -0.998029 0.0627554 0
    outer loop
      vertex -79.25 99 0
      vertex -79.1692 100.285 18.5
      vertex -79.1692 100.285 0
    endloop
  endfacet
  facet normal -0.998029 0.0627554 0
    outer loop
      vertex -79.1692 100.285 18.5
      vertex -79.25 99 0
      vertex -79.25 99 18.5
    endloop
  endfacet
  facet normal -0.684497 0.729016 0
    outer loop
      vertex -75.5336 106.898 0
      vertex -76.4719 106.017 18.5
      vertex -75.5336 106.898 18.5
    endloop
  endfacet
  facet normal -0.684497 0.729016 0
    outer loop
      vertex -76.4719 106.017 18.5
      vertex -75.5336 106.898 0
      vertex -76.4719 106.017 0
    endloop
  endfacet
  facet normal -0.125841 0.99205 0
    outer loop
      vertex -69.6436 109.23 0
      vertex -70.9207 109.068 18.5
      vertex -69.6436 109.23 18.5
    endloop
  endfacet
  facet normal -0.125841 0.99205 0
    outer loop
      vertex -70.9207 109.068 18.5
      vertex -69.6436 109.23 0
      vertex -70.9207 109.068 0
    endloop
  endfacet
  facet normal -0.48168 0.876347 0
    outer loop
      vertex -73.3642 108.274 0
      vertex -74.4922 107.654 18.5
      vertex -73.3642 108.274 18.5
    endloop
  endfacet
  facet normal -0.48168 0.876347 0
    outer loop
      vertex -74.4922 107.654 18.5
      vertex -73.3642 108.274 0
      vertex -74.4922 107.654 0
    endloop
  endfacet
  facet normal -0.368228 0.929736 0
    outer loop
      vertex -72.1674 108.748 0
      vertex -73.3642 108.274 18.5
      vertex -72.1674 108.748 18.5
    endloop
  endfacet
  facet normal -0.368228 0.929736 0
    outer loop
      vertex -73.3642 108.274 18.5
      vertex -72.1674 108.748 0
      vertex -73.3642 108.274 0
    endloop
  endfacet
  facet normal -0.770572 0.637353 0
    outer loop
      vertex -77.2924 105.025 0
      vertex -76.4719 106.017 18.5
      vertex -76.4719 106.017 0
    endloop
  endfacet
  facet normal -0.770572 0.637353 0
    outer loop
      vertex -76.4719 106.017 18.5
      vertex -77.2924 105.025 0
      vertex -77.2924 105.025 18.5
    endloop
  endfacet
  facet normal -0.587469 0.809247 0
    outer loop
      vertex -74.4922 107.654 0
      vertex -75.5336 106.898 18.5
      vertex -74.4922 107.654 18.5
    endloop
  endfacet
  facet normal -0.587469 0.809247 0
    outer loop
      vertex -75.5336 106.898 18.5
      vertex -74.4922 107.654 0
      vertex -75.5336 106.898 0
    endloop
  endfacet
  facet normal -0.248618 0.968602 0
    outer loop
      vertex -70.9207 109.068 0
      vertex -72.1674 108.748 18.5
      vertex -70.9207 109.068 18.5
    endloop
  endfacet
  facet normal -0.248618 0.968602 0
    outer loop
      vertex -72.1674 108.748 18.5
      vertex -70.9207 109.068 0
      vertex -72.1674 108.748 0
    endloop
  endfacet
  facet normal -0.982276 0.187441 0
    outer loop
      vertex -79.1692 100.285 0
      vertex -78.928 101.549 18.5
      vertex -78.928 101.549 0
    endloop
  endfacet
  facet normal -0.982276 0.187441 0
    outer loop
      vertex -78.928 101.549 18.5
      vertex -79.1692 100.285 0
      vertex -79.1692 100.285 18.5
    endloop
  endfacet
  facet normal -0.904859 0.425711 0
    outer loop
      vertex -78.5302 102.773 0
      vertex -77.9821 103.938 18.5
      vertex -77.9821 103.938 0
    endloop
  endfacet
  facet normal -0.904859 0.425711 0
    outer loop
      vertex -77.9821 103.938 18.5
      vertex -78.5302 102.773 0
      vertex -78.5302 102.773 18.5
    endloop
  endfacet
  facet normal -0.844374 0.535754 0
    outer loop
      vertex -77.9821 103.938 0
      vertex -77.2924 105.025 18.5
      vertex -77.2924 105.025 0
    endloop
  endfacet
  facet normal -0.844374 0.535754 0
    outer loop
      vertex -77.2924 105.025 18.5
      vertex -77.9821 103.938 0
      vertex -77.9821 103.938 18.5
    endloop
  endfacet
  facet normal -0.951034 0.309086 0
    outer loop
      vertex -78.928 101.549 0
      vertex -78.5302 102.773 18.5
      vertex -78.5302 102.773 0
    endloop
  endfacet
  facet normal -0.951034 0.309086 0
    outer loop
      vertex -78.5302 102.773 18.5
      vertex -78.928 101.549 0
      vertex -78.928 101.549 18.5
    endloop
  endfacet
endsolid OpenSCAD_Model
