  0
SECTION
  2
BLOCKS
  0
ENDSEC
  0
SECTION
  2
ENTITIES
  0
LINE
  8
0
 10
-68
 20
85
 11
-67.9566
 21
85.6893
  0
LINE
  8
0
 10
-67.9566
 20
85.6893
 11
-67.8272
 21
86.3678
  0
LINE
  8
0
 10
-67.8272
 20
86.3678
 11
-67.6138
 21
87.0247
  0
LINE
  8
0
 10
-67.6138
 20
87.0247
 11
-67.3197
 21
87.6496
  0
LINE
  8
0
 10
-67.3197
 20
87.6496
 11
-66.9496
 21
88.2328
  0
LINE
  8
0
 10
-66.9496
 20
88.2328
 11
-66.5093
 21
88.765
  0
LINE
  8
0
 10
-66.5093
 20
88.765
 11
-66.0058
 21
89.2378
  0
LINE
  8
0
 10
-66.0058
 20
89.2378
 11
-65.447
 21
89.6438
  0
LINE
  8
0
 10
-65.447
 20
89.6438
 11
-64.8418
 21
89.9765
  0
LINE
  8
0
 10
-64.8418
 20
89.9765
 11
-64.1996
 21
90.2308
  0
LINE
  8
0
 10
-64.1996
 20
90.2308
 11
-63.5306
 21
90.4026
  0
LINE
  8
0
 10
-63.5306
 20
90.4026
 11
-62.8453
 21
90.4891
  0
LINE
  8
0
 10
-62.8453
 20
90.4891
 11
-54.25
 21
90.4891
  0
LINE
  8
0
 10
-54.25
 20
90.4891
 11
-54.25
 21
109.23
  0
LINE
  8
0
 10
-54.25
 20
109.23
 11
-69.6436
 21
109.23
  0
LINE
  8
0
 10
-69.6436
 20
109.23
 11
-70.9207
 21
109.068
  0
LINE
  8
0
 10
-70.9207
 20
109.068
 11
-72.1674
 21
108.748
  0
LINE
  8
0
 10
-72.1674
 20
108.748
 11
-73.3642
 21
108.274
  0
LINE
  8
0
 10
-73.3642
 20
108.274
 11
-74.4922
 21
107.654
  0
LINE
  8
0
 10
-74.4922
 20
107.654
 11
-75.5336
 21
106.898
  0
LINE
  8
0
 10
-75.5336
 20
106.898
 11
-76.4719
 21
106.017
  0
LINE
  8
0
 10
-76.4719
 20
106.017
 11
-77.2924
 21
105.025
  0
LINE
  8
0
 10
-77.2924
 20
105.025
 11
-77.9821
 21
103.938
  0
LINE
  8
0
 10
-77.9821
 20
103.938
 11
-78.5302
 21
102.773
  0
LINE
  8
0
 10
-78.5302
 20
102.773
 11
-78.928
 21
101.549
  0
LINE
  8
0
 10
-78.928
 20
101.549
 11
-79.1692
 21
100.285
  0
LINE
  8
0
 10
-79.1692
 20
100.285
 11
-79.25
 21
99
  0
LINE
  8
0
 10
-79.25
 20
99
 11
-79.25
 21
84.25
  0
LINE
  8
0
 10
-79.25
 20
84.25
 11
-68
 21
84.25
  0
LINE
  8
0
 10
-68
 20
84.25
 11
-68
 21
85
  0
ENDSEC
  0
SECTION
  2
OBJECTS
  0
DICTIONARY
  0
ENDSEC
  0
EOF
